<?xml version="1.0" encoding="UTF-8"?>
<svg id="Layer_1" data-name="Layer 1" xmlns="http://www.w3.org/2000/svg" viewBox="0 0 400 400">
  <defs>
    <style>
      .cls-1 {
        fill: #0d322c;
      }

      .cls-2 {
        fill: #30ba78;
      }
    </style>
  </defs>
  <g>
    <rect class="cls-2" x="39.48" y="103.88" width="78.58" height="19.64"/>
    <rect class="cls-2" x="39.48" y="193.66" width="78.58" height="19.64"/>
    <path class="cls-1" d="M127.88,362.3H29.66V47.99h98.22v314.3ZM49.3,342.65h58.93V67.64h-58.93v275.02Z"/>
  </g>
  <g>
    <rect class="cls-2" x="118.05" y="103.88" width="78.58" height="19.64"/>
    <rect class="cls-2" x="118.05" y="193.66" width="78.58" height="19.64"/>
    <path class="cls-1" d="M206.46,362.3h-98.22V47.99h98.22v314.3ZM127.88,342.65h58.94V67.64h-58.94v275.02Z"/>
  </g>
  <g>
    <rect class="cls-2" x="219.28" y="101.84" width="78.58" height="19.64" transform="translate(-20.09 70.73) rotate(-15)"/>
    <rect class="cls-2" x="242.52" y="188.57" width="78.58" height="19.64" transform="translate(-41.75 79.7) rotate(-15)"/>
    <path class="cls-1" d="M275.47,364.5L194.12,60.91l94.87-25.42,81.35,303.59-94.87,25.42ZM218.18,74.8l71.18,265.64,56.93-15.25L275.11,59.55l-56.93,15.25Z"/>
  </g>
</svg>