<?xml version="1.0" encoding="UTF-8" standalone="no"?>
<!DOCTYPE svg PUBLIC "-//W3C//DTD SVG 1.1//EN"
 "http://www.w3.org/Graphics/SVG/1.1/DTD/svg11.dtd">
<!-- Generated by graphviz version 2.40.1 (20161225.0304)
 -->
<!-- Title: G Pages: 1 -->
<svg width="1253pt" height="710pt"
 viewBox="0.00 0.00 1252.50 710.00" xmlns="http://www.w3.org/2000/svg" xmlns:xlink="http://www.w3.org/1999/xlink">
<g id="graph0" class="graph" transform="scale(1 1) rotate(0) translate(4 706)">
<title>G</title>
<polygon fill="#ffffff" stroke="transparent" points="-4,4 -4,-706 1248.5,-706 1248.5,4 -4,4"/>
<g id="clust1" class="cluster">
<title>cluster input</title>
<polygon fill="none" stroke="#000000" points="235.5,-640 235.5,-694 794.5,-694 794.5,-640 235.5,-640"/>
</g>
<!-- Network\nBandwidth -->
<g id="node1" class="node">
<title>Network\nBandwidth</title>
<polygon fill="none" stroke="#000000" points="682,-686 609,-686 605,-682 605,-648 678,-648 682,-652 682,-686"/>
<polyline fill="none" stroke="#000000" points="678,-682 605,-682 "/>
<polyline fill="none" stroke="#000000" points="678,-682 678,-648 "/>
<polyline fill="none" stroke="#000000" points="678,-682 682,-686 "/>
<text text-anchor="middle" x="643.5" y="-670.8" font-family="Times,serif" font-size="14.00" fill="#000000">Network</text>
<text text-anchor="middle" x="643.5" y="-655.8" font-family="Times,serif" font-size="14.00" fill="#000000">Bandwidth</text>
</g>
<!-- Proxy count -->
<g id="node13" class="node">
<title>Proxy count</title>
<polygon fill="none" stroke="#000000" points="443.5,-612 361.5,-612 357.5,-608 357.5,-576 439.5,-576 443.5,-580 443.5,-612"/>
<polyline fill="none" stroke="#000000" points="439.5,-608 357.5,-608 "/>
<polyline fill="none" stroke="#000000" points="439.5,-608 439.5,-576 "/>
<polyline fill="none" stroke="#000000" points="439.5,-608 443.5,-612 "/>
<text text-anchor="middle" x="400.5" y="-590.3" font-family="Times,serif" font-size="14.00" fill="#000000">Proxy count</text>
</g>
<!-- Network\nBandwidth&#45;&gt;Proxy count -->
<g id="edge14" class="edge">
<title>Network\nBandwidth&#45;&gt;Proxy count</title>
<path fill="none" stroke="#000000" stroke-dasharray="5,2" d="M613.6109,-647.9374C608.0718,-644.9569 602.2244,-642.1554 596.5,-640 537.5234,-617.7938 518.5231,-627.7332 457.5,-612 456.2282,-611.6721 454.9428,-611.3326 453.6483,-610.9835"/>
<polygon fill="#000000" stroke="#000000" points="454.1944,-607.5009 443.6195,-608.1509 452.2917,-614.2373 454.1944,-607.5009"/>
</g>
<!-- Client count -->
<g id="node2" class="node">
<title>Client count</title>
<polygon fill="none" stroke="#000000" points="786.5,-685 704.5,-685 700.5,-681 700.5,-649 782.5,-649 786.5,-653 786.5,-685"/>
<polyline fill="none" stroke="#000000" points="782.5,-681 700.5,-681 "/>
<polyline fill="none" stroke="#000000" points="782.5,-681 782.5,-649 "/>
<polyline fill="none" stroke="#000000" points="782.5,-681 786.5,-685 "/>
<text text-anchor="middle" x="743.5" y="-663.3" font-family="Times,serif" font-size="14.00" fill="#000000">Client count</text>
</g>
<!-- java.message_queue_thread_pool_size -->
<g id="node7" class="node">
<title>java.message_queue_thread_pool_size</title>
<polygon fill="none" stroke="#a020f0" points="883.5,-468 647.5,-468 647.5,-432 883.5,-432 883.5,-468"/>
<text text-anchor="middle" x="765.5" y="-446.3" font-family="Times,serif" font-size="14.00" fill="#000000">java.message_queue_thread_pool_size</text>
</g>
<!-- Client count&#45;&gt;java.message_queue_thread_pool_size -->
<g id="edge2" class="edge">
<title>Client count&#45;&gt;java.message_queue_thread_pool_size</title>
<path fill="none" stroke="#000000" stroke-dasharray="5,2" d="M786.6388,-665.4427C860.4601,-661.7719 1006.1122,-649.8042 1037.5,-612 1095.4336,-542.2234 965.683,-495.0936 866.1244,-470.4051"/>
<polygon fill="#000000" stroke="#000000" points="866.8309,-466.9749 856.287,-468.0133 865.1771,-473.7768 866.8309,-466.9749"/>
</g>
<!-- java.salt_batch_size -->
<g id="node8" class="node">
<title>java.salt_batch_size</title>
<polygon fill="none" stroke="#a020f0" points="1104.5,-468 976.5,-468 976.5,-432 1104.5,-432 1104.5,-468"/>
<text text-anchor="middle" x="1040.5" y="-446.3" font-family="Times,serif" font-size="14.00" fill="#000000">java.salt_batch_size</text>
</g>
<!-- Client count&#45;&gt;java.salt_batch_size -->
<g id="edge3" class="edge">
<title>Client count&#45;&gt;java.salt_batch_size</title>
<path fill="none" stroke="#000000" stroke-dasharray="5,2" d="M786.5938,-666.045C864.5836,-663.3086 1024.2536,-652.744 1058.5,-612 1090.2882,-574.1806 1070.3472,-512.6002 1054.4487,-477.2572"/>
<polygon fill="#000000" stroke="#000000" points="1057.5339,-475.5927 1050.118,-468.0259 1051.1966,-478.5657 1057.5339,-475.5927"/>
</g>
<!-- java.salt_presence_ping_gather_job_timeout -->
<g id="node9" class="node">
<title>java.salt_presence_ping_gather_job_timeout</title>
<polygon fill="none" stroke="#a020f0" points="1178.5,-396 910.5,-396 910.5,-360 1178.5,-360 1178.5,-396"/>
<text text-anchor="middle" x="1044.5" y="-374.3" font-family="Times,serif" font-size="14.00" fill="#000000">java.salt_presence_ping_gather_job_timeout</text>
</g>
<!-- Client count&#45;&gt;java.salt_presence_ping_gather_job_timeout -->
<g id="edge4" class="edge">
<title>Client count&#45;&gt;java.salt_presence_ping_gather_job_timeout</title>
<path fill="none" stroke="#000000" stroke-dasharray="5,2" d="M786.638,-665.7282C867.5553,-662.4394 1037.7328,-650.9563 1079.5,-612 1139.0374,-556.4694 1149.1598,-505.1897 1113.5,-432 1107.7696,-420.2386 1098.1013,-410.2849 1087.7879,-402.2518"/>
<polygon fill="#000000" stroke="#000000" points="1089.5974,-399.2412 1079.4415,-396.2233 1085.4987,-404.9159 1089.5974,-399.2412"/>
</g>
<!-- java.salt_presence_ping_timeout -->
<g id="node10" class="node">
<title>java.salt_presence_ping_timeout</title>
<polygon fill="none" stroke="#a020f0" points="1180.5,-324 980.5,-324 980.5,-288 1180.5,-288 1180.5,-324"/>
<text text-anchor="middle" x="1080.5" y="-302.3" font-family="Times,serif" font-size="14.00" fill="#000000">java.salt_presence_ping_timeout</text>
</g>
<!-- Client count&#45;&gt;java.salt_presence_ping_timeout -->
<g id="edge5" class="edge">
<title>Client count&#45;&gt;java.salt_presence_ping_timeout</title>
<path fill="none" stroke="#000000" stroke-dasharray="5,2" d="M786.5172,-663.686C870.3277,-656.7163 1052.2087,-638.9295 1108.5,-612 1161.846,-586.4795 1206.5,-581.1362 1206.5,-522 1206.5,-522 1206.5,-522 1206.5,-450 1206.5,-409.1184 1212.4273,-392.4027 1187.5,-360 1177.3083,-346.752 1162.9775,-336.5011 1148.1085,-328.6709"/>
<polygon fill="#000000" stroke="#000000" points="1149.3317,-325.3723 1138.8131,-324.1032 1146.2444,-331.6548 1149.3317,-325.3723"/>
</g>
<!-- org.quartz.threadPool.threadCount -->
<g id="node11" class="node">
<title>org.quartz.threadPool.threadCount</title>
<polygon fill="none" stroke="#a020f0" points="591.5,-468 379.5,-468 379.5,-432 591.5,-432 591.5,-468"/>
<text text-anchor="middle" x="485.5" y="-446.3" font-family="Times,serif" font-size="14.00" fill="#000000">org.quartz.threadPool.threadCount</text>
</g>
<!-- Client count&#45;&gt;org.quartz.threadPool.threadCount -->
<g id="edge6" class="edge">
<title>Client count&#45;&gt;org.quartz.threadPool.threadCount</title>
<path fill="none" stroke="#000000" stroke-dasharray="5,2" d="M712.8962,-648.9349C706.0411,-645.511 698.6709,-642.2892 691.5,-640 648.7477,-626.3522 521.5732,-645.311 491.5,-612 458.6283,-575.5892 467.736,-513.6643 476.8981,-477.8453"/>
<polygon fill="#000000" stroke="#000000" points="480.3148,-478.6196 479.5726,-468.0508 473.562,-476.7756 480.3148,-478.6196"/>
</g>
<!-- org.quartz.scheduler.idleWaitTime -->
<g id="node12" class="node">
<title>org.quartz.scheduler.idleWaitTime</title>
<polygon fill="none" stroke="#a020f0" points="715,-612 500,-612 500,-576 715,-576 715,-612"/>
<text text-anchor="middle" x="607.5" y="-590.3" font-family="Times,serif" font-size="14.00" fill="#000000">org.quartz.scheduler.idleWaitTime</text>
</g>
<!-- Client count&#45;&gt;org.quartz.scheduler.idleWaitTime -->
<g id="edge7" class="edge">
<title>Client count&#45;&gt;org.quartz.scheduler.idleWaitTime</title>
<path fill="none" stroke="#000000" stroke-dasharray="5,2" d="M709.882,-648.9551C691.8193,-639.2596 669.3644,-627.2066 650.0904,-616.861"/>
<polygon fill="#000000" stroke="#000000" points="651.6689,-613.736 641.2026,-612.0904 648.3582,-619.9037 651.6689,-613.736"/>
</g>
<!-- Client count&#45;&gt;Proxy count -->
<g id="edge8" class="edge">
<title>Client count&#45;&gt;Proxy count</title>
<path fill="none" stroke="#000000" stroke-dasharray="5,2" d="M713.2081,-648.9646C706.2726,-645.4952 698.7906,-642.2473 691.5,-640 591.4054,-609.1465 559.8862,-634.089 457.5,-612 456.2161,-611.723 454.9199,-611.4294 453.6156,-611.1215"/>
<polygon fill="#000000" stroke="#000000" points="454.0895,-607.6293 443.5322,-608.5199 452.3407,-614.4073 454.0895,-607.6293"/>
</g>
<!-- rhn&#45;search.java.maxmemory -->
<g id="node14" class="node">
<title>rhn&#45;search.java.maxmemory</title>
<polygon fill="none" stroke="#a020f0" points="767.5,-540 589.5,-540 589.5,-504 767.5,-504 767.5,-540"/>
<text text-anchor="middle" x="678.5" y="-518.3" font-family="Times,serif" font-size="14.00" fill="#000000">rhn&#45;search.java.maxmemory</text>
</g>
<!-- Client count&#45;&gt;rhn&#45;search.java.maxmemory -->
<g id="edge9" class="edge">
<title>Client count&#45;&gt;rhn&#45;search.java.maxmemory</title>
<path fill="none" stroke="#000000" stroke-dasharray="5,2" d="M742.3503,-648.6987C740.5587,-629.6824 736.0065,-599.4776 724.5,-576 719.5713,-565.9436 712.3397,-556.2177 705.0632,-547.8566"/>
<polygon fill="#000000" stroke="#000000" points="707.4777,-545.3105 698.1467,-540.2922 702.3116,-550.0341 707.4777,-545.3105"/>
</g>
<!-- worker_threads -->
<g id="node15" class="node">
<title>worker_threads</title>
<polygon fill="none" stroke="#0000ff" points="857.5,-324 753.5,-324 753.5,-288 857.5,-288 857.5,-324"/>
<text text-anchor="middle" x="805.5" y="-302.3" font-family="Times,serif" font-size="14.00" fill="#000000">worker_threads</text>
</g>
<!-- Client count&#45;&gt;worker_threads -->
<g id="edge10" class="edge">
<title>Client count&#45;&gt;worker_threads</title>
<path fill="none" stroke="#000000" stroke-dasharray="5,2" d="M754.1538,-648.7469C765.302,-630.0312 783.637,-600.3046 801.5,-576 838.672,-525.4234 870.9719,-526.9601 892.5,-468 911.1516,-416.9178 866.461,-362.0885 834.4664,-331.1162"/>
<polygon fill="#000000" stroke="#000000" points="836.7363,-328.4462 827.0554,-324.1414 831.9388,-333.5437 836.7363,-328.4462"/>
</g>
<!-- sock_pool_size -->
<g id="node16" class="node">
<title>sock_pool_size</title>
<polygon fill="none" stroke="#0000ff" points="915,-612 810,-612 810,-576 915,-576 915,-612"/>
<text text-anchor="middle" x="862.5" y="-590.3" font-family="Times,serif" font-size="14.00" fill="#000000">sock_pool_size</text>
</g>
<!-- Client count&#45;&gt;sock_pool_size -->
<g id="edge11" class="edge">
<title>Client count&#45;&gt;sock_pool_size</title>
<path fill="none" stroke="#000000" stroke-dasharray="5,2" d="M772.9157,-648.9551C788.363,-639.479 807.4816,-627.7508 824.0845,-617.5658"/>
<polygon fill="#000000" stroke="#000000" points="826.3164,-620.3028 833.0102,-612.0904 822.6561,-614.336 826.3164,-620.3028"/>
</g>
<!-- zmq_backlog -->
<g id="node17" class="node">
<title>zmq_backlog</title>
<polygon fill="none" stroke="#0000ff" points="1028,-612 933,-612 933,-576 1028,-576 1028,-612"/>
<text text-anchor="middle" x="980.5" y="-590.3" font-family="Times,serif" font-size="14.00" fill="#000000">zmq_backlog</text>
</g>
<!-- Client count&#45;&gt;zmq_backlog -->
<g id="edge12" class="edge">
<title>Client count&#45;&gt;zmq_backlog</title>
<path fill="none" stroke="#000000" stroke-dasharray="5,2" d="M786.7136,-654.0806C821.2699,-643.7017 871.2051,-628.5979 923.1401,-612.406"/>
<polygon fill="#000000" stroke="#000000" points="924.3558,-615.6931 932.8576,-609.3708 922.2688,-609.0114 924.3558,-615.6931"/>
</g>
<!-- MinionActionExecutor.parallel_threads -->
<g id="node18" class="node">
<title>MinionActionExecutor.parallel_threads</title>
<polygon fill="none" stroke="#a020f0" points="1200.5,-252 960.5,-252 960.5,-216 1200.5,-216 1200.5,-252"/>
<text text-anchor="middle" x="1080.5" y="-230.3" font-family="Times,serif" font-size="14.00" fill="#000000">MinionActionExecutor.parallel_threads</text>
</g>
<!-- Client count&#45;&gt;MinionActionExecutor.parallel_threads -->
<g id="edge13" class="edge">
<title>Client count&#45;&gt;MinionActionExecutor.parallel_threads</title>
<path fill="none" stroke="#000000" stroke-dasharray="5,2" d="M786.8201,-664.8853C879.5588,-659.7792 1094.1052,-644.7057 1158.5,-612 1207.8281,-586.9466 1244.5,-577.3257 1244.5,-522 1244.5,-522 1244.5,-522 1244.5,-378 1244.5,-319.5662 1184.9834,-279.2769 1137.6578,-256.477"/>
<polygon fill="#000000" stroke="#000000" points="1138.9188,-253.2033 1128.3765,-252.1501 1135.961,-259.5477 1138.9188,-253.2033"/>
</g>
<!-- Channel count -->
<g id="node3" class="node">
<title>Channel count</title>
<ellipse fill="none" stroke="#000000" cx="307.5" cy="-667" rx="63.8893" ry="18"/>
<text text-anchor="middle" x="307.5" y="-663.3" font-family="Times,serif" font-size="14.00" fill="#000000">Channel count</text>
</g>
<!-- java.taskomatic_channel_repodata_workers -->
<g id="node6" class="node">
<title>java.taskomatic_channel_repodata_workers</title>
<polygon fill="none" stroke="#a020f0" points="263,-612 0,-612 0,-576 263,-576 263,-612"/>
<text text-anchor="middle" x="131.5" y="-590.3" font-family="Times,serif" font-size="14.00" fill="#000000">java.taskomatic_channel_repodata_workers</text>
</g>
<!-- Channel count&#45;&gt;java.taskomatic_channel_repodata_workers -->
<g id="edge1" class="edge">
<title>Channel count&#45;&gt;java.taskomatic_channel_repodata_workers</title>
<path fill="none" stroke="#000000" stroke-dasharray="5,2" d="M271.4591,-652.0512C246.3405,-641.6327 212.4225,-627.5644 184.2677,-615.8866"/>
<polygon fill="#000000" stroke="#000000" points="185.5394,-612.625 174.9615,-612.0266 182.8575,-619.0909 185.5394,-612.625"/>
</g>
<!-- OS mix -->
<g id="node4" class="node">
<title>OS mix</title>
<ellipse fill="none" stroke="#000000" cx="548.5" cy="-667" rx="38.9931" ry="18"/>
<text text-anchor="middle" x="548.5" y="-663.3" font-family="Times,serif" font-size="14.00" fill="#000000">OS mix</text>
</g>
<!-- OS mix&#45;&gt;Proxy count -->
<g id="edge15" class="edge">
<title>OS mix&#45;&gt;Proxy count</title>
<path fill="none" stroke="#000000" stroke-dasharray="5,2" d="M524.289,-652.8767C516.7384,-648.6089 508.3355,-643.9976 500.5,-640 484.5627,-631.869 466.9074,-623.5328 450.9223,-616.2289"/>
<polygon fill="#000000" stroke="#000000" points="452.2818,-613.0024 441.7292,-612.0572 449.3891,-619.3768 452.2818,-613.0024"/>
</g>
<!-- taskomatic.java.maxmemory -->
<g id="node19" class="node">
<title>taskomatic.java.maxmemory</title>
<polygon fill="none" stroke="#a020f0" points="235.5,-540 55.5,-540 55.5,-504 235.5,-504 235.5,-540"/>
<text text-anchor="middle" x="145.5" y="-518.3" font-family="Times,serif" font-size="14.00" fill="#000000">taskomatic.java.maxmemory</text>
</g>
<!-- OS mix&#45;&gt;taskomatic.java.maxmemory -->
<g id="edge16" class="edge">
<title>OS mix&#45;&gt;taskomatic.java.maxmemory</title>
<path fill="none" stroke="#000000" stroke-dasharray="5,2" d="M525.8018,-652.2038C518.0385,-647.7018 509.1308,-643.1239 500.5,-640 435.9086,-616.6213 413.9231,-632.939 348.5,-612 312.5201,-600.4844 305.9773,-591.4427 271.5,-576 247.4586,-565.2316 220.6517,-553.68 197.9651,-544.0357"/>
<polygon fill="#000000" stroke="#000000" points="199.0875,-540.7099 188.5147,-540.027 196.3539,-547.1541 199.0875,-540.7099"/>
</g>
<!-- User count -->
<g id="node5" class="node">
<title>User count</title>
<ellipse fill="none" stroke="#000000" cx="440.5" cy="-667" rx="51.1914" ry="18"/>
<text text-anchor="middle" x="440.5" y="-663.3" font-family="Times,serif" font-size="14.00" fill="#000000">User count</text>
</g>
<!-- MaxClients -->
<g id="node20" class="node">
<title>MaxClients</title>
<polygon fill="none" stroke="#ff0000" points="363.5,-540 281.5,-540 281.5,-504 363.5,-504 363.5,-540"/>
<text text-anchor="middle" x="322.5" y="-518.3" font-family="Times,serif" font-size="14.00" fill="#000000">MaxClients</text>
</g>
<!-- User count&#45;&gt;MaxClients -->
<g id="edge18" class="edge">
<title>User count&#45;&gt;MaxClients</title>
<path fill="none" stroke="#000000" stroke-dasharray="5,2" d="M410.6246,-652.2059C387.1409,-640.0373 357.0195,-623.0546 348.5,-612 334.7621,-594.1743 328.2792,-569.3239 325.2221,-550.251"/>
<polygon fill="#000000" stroke="#000000" points="328.6872,-549.7576 323.8518,-540.3306 321.7531,-550.7155 328.6872,-549.7576"/>
</g>
<!-- java.taskomatic_channel_repodata_workers&#45;&gt;taskomatic.java.maxmemory -->
<g id="edge23" class="edge">
<title>java.taskomatic_channel_repodata_workers&#45;&gt;taskomatic.java.maxmemory</title>
<path fill="none" stroke="#000000" d="M135.0328,-575.8314C136.5301,-568.131 138.3105,-558.9743 139.9745,-550.4166"/>
<polygon fill="#000000" stroke="#000000" points="143.4465,-550.8975 141.9196,-540.4133 136.5752,-549.5614 143.4465,-550.8975"/>
</g>
<!-- hibernate.c3p0.max_size -->
<g id="node21" class="node">
<title>hibernate.c3p0.max_size</title>
<polygon fill="none" stroke="#a020f0" points="575,-396 420,-396 420,-360 575,-360 575,-396"/>
<text text-anchor="middle" x="497.5" y="-374.3" font-family="Times,serif" font-size="14.00" fill="#000000">hibernate.c3p0.max_size</text>
</g>
<!-- java.message_queue_thread_pool_size&#45;&gt;hibernate.c3p0.max_size -->
<g id="edge20" class="edge">
<title>java.message_queue_thread_pool_size&#45;&gt;hibernate.c3p0.max_size</title>
<path fill="none" stroke="#000000" d="M698.2182,-431.9243C660.6253,-421.8247 613.6267,-409.1982 574.5602,-398.7027"/>
<polygon fill="#000000" stroke="#000000" points="575.3751,-395.2976 564.8095,-396.0831 573.5589,-402.0579 575.3751,-395.2976"/>
</g>
<!-- thread_pool -->
<g id="node23" class="node">
<title>thread_pool</title>
<polygon fill="none" stroke="#0000ff" points="847.5,-396 763.5,-396 763.5,-360 847.5,-360 847.5,-396"/>
<text text-anchor="middle" x="805.5" y="-374.3" font-family="Times,serif" font-size="14.00" fill="#000000">thread_pool</text>
</g>
<!-- java.message_queue_thread_pool_size&#45;&gt;thread_pool -->
<g id="edge21" class="edge">
<title>java.message_queue_thread_pool_size&#45;&gt;thread_pool</title>
<path fill="none" stroke="#000000" d="M775.5937,-431.8314C780.0597,-423.7925 785.4075,-414.1666 790.3379,-405.2918"/>
<polygon fill="#000000" stroke="#000000" points="793.4735,-406.8546 795.2704,-396.4133 787.3544,-403.4551 793.4735,-406.8546"/>
</g>
<!-- Tomcat &#45;Xmx -->
<g id="node24" class="node">
<title>Tomcat &#45;Xmx</title>
<polygon fill="none" stroke="#a52a2a" points="745.5,-396 647.5,-396 647.5,-360 745.5,-360 745.5,-396"/>
<text text-anchor="middle" x="696.5" y="-374.3" font-family="Times,serif" font-size="14.00" fill="#000000">Tomcat &#45;Xmx</text>
</g>
<!-- java.message_queue_thread_pool_size&#45;&gt;Tomcat &#45;Xmx -->
<g id="edge22" class="edge">
<title>java.message_queue_thread_pool_size&#45;&gt;Tomcat &#45;Xmx</title>
<path fill="none" stroke="#000000" d="M748.0884,-431.8314C739.979,-423.3694 730.1844,-413.1489 721.318,-403.8971"/>
<polygon fill="#000000" stroke="#000000" points="723.5921,-401.2115 714.146,-396.4133 718.5382,-406.0549 723.5921,-401.2115"/>
</g>
<!-- java.salt_batch_size&#45;&gt;java.salt_presence_ping_gather_job_timeout -->
<!-- java.salt_presence_ping_gather_job_timeout&#45;&gt;java.salt_presence_ping_timeout -->
<!-- java.salt_presence_ping_timeout&#45;&gt;MinionActionExecutor.parallel_threads -->
<!-- org.quartz.threadPool.threadCount&#45;&gt;hibernate.c3p0.max_size -->
<g id="edge30" class="edge">
<title>org.quartz.threadPool.threadCount&#45;&gt;hibernate.c3p0.max_size</title>
<path fill="none" stroke="#000000" d="M488.5281,-431.8314C489.8115,-424.131 491.3376,-414.9743 492.7639,-406.4166"/>
<polygon fill="#000000" stroke="#000000" points="496.2394,-406.8526 494.4311,-396.4133 489.3347,-405.7018 496.2394,-406.8526"/>
</g>
<!-- org.quartz.threadPool.threadCount&#45;&gt;thread_pool -->
<g id="edge31" class="edge">
<title>org.quartz.threadPool.threadCount&#45;&gt;thread_pool</title>
<path fill="none" stroke="#000000" d="M591.7088,-432.2557C638.8947,-423.5109 695.1647,-411.9066 753.5718,-396.0775"/>
<polygon fill="#000000" stroke="#000000" points="754.6284,-399.417 763.345,-393.3944 752.7752,-392.6668 754.6284,-399.417"/>
</g>
<!-- org.quartz.scheduler.idleWaitTime&#45;&gt;rhn&#45;search.java.maxmemory -->
<!-- Proxy count&#45;&gt;MaxClients -->
<g id="edge17" class="edge">
<title>Proxy count&#45;&gt;MaxClients</title>
<path fill="none" stroke="#000000" stroke-dasharray="5,2" d="M380.8173,-575.8314C371.3949,-567.1337 359.9599,-556.5783 349.7204,-547.1265"/>
<polygon fill="#000000" stroke="#000000" points="351.8984,-544.3738 342.1764,-540.1628 347.1505,-549.5175 351.8984,-544.3738"/>
</g>
<!-- rhn&#45;search.java.maxmemory&#45;&gt;java.salt_batch_size -->
<!-- rhn&#45;search.java.maxmemory&#45;&gt;rhn&#45;search.java.maxmemory -->
<!-- memory usage -->
<g id="node25" class="node">
<title>memory usage</title>
<ellipse fill="none" stroke="#000000" cx="639.5" cy="-234" rx="65.7887" ry="18"/>
<text text-anchor="middle" x="639.5" y="-230.3" font-family="Times,serif" font-size="14.00" fill="#000000">memory usage</text>
</g>
<!-- rhn&#45;search.java.maxmemory&#45;&gt;memory usage -->
<g id="edge35" class="edge">
<title>rhn&#45;search.java.maxmemory&#45;&gt;memory usage</title>
<path fill="none" stroke="#000000" d="M660.3424,-503.7286C651.951,-493.9911 642.8877,-481.2949 638.5,-468 615.0436,-396.9263 625.8659,-306.9612 633.7775,-262.104"/>
<polygon fill="#000000" stroke="#000000" points="637.2288,-262.6879 635.6051,-252.2182 630.3455,-261.4153 637.2288,-262.6879"/>
</g>
<!-- worker_threads&#45;&gt;memory usage -->
<g id="edge40" class="edge">
<title>worker_threads&#45;&gt;memory usage</title>
<path fill="none" stroke="#000000" d="M763.6112,-287.8314C739.2535,-277.2666 708.5762,-263.9607 683.8155,-253.2212"/>
<polygon fill="#000000" stroke="#000000" points="685.2079,-250.0101 674.6409,-249.2418 682.4224,-256.4321 685.2079,-250.0101"/>
</g>
<!-- work_mem -->
<g id="node32" class="node">
<title>work_mem</title>
<polygon fill="none" stroke="#c0c0c0" points="749.5,-180 667.5,-180 667.5,-144 749.5,-144 749.5,-180"/>
<text text-anchor="middle" x="708.5" y="-158.3" font-family="Times,serif" font-size="14.00" fill="#000000">work_mem</text>
</g>
<!-- MinionActionExecutor.parallel_threads&#45;&gt;work_mem -->
<!-- taskomatic.java.maxmemory&#45;&gt;memory usage -->
<g id="edge36" class="edge">
<title>taskomatic.java.maxmemory&#45;&gt;memory usage</title>
<path fill="none" stroke="#000000" d="M144.9471,-503.9171C145.2633,-484.2955 148.544,-452.9691 164.5,-432 262.902,-302.6821 461.2499,-257.1729 567.8532,-241.661"/>
<polygon fill="#000000" stroke="#000000" points="568.4615,-245.11 577.8768,-240.2517 567.4868,-238.1782 568.4615,-245.11"/>
</g>
<!-- maxThreads -->
<g id="node26" class="node">
<title>maxThreads</title>
<polygon fill="none" stroke="#a52a2a" points="361.5,-468 275.5,-468 275.5,-432 361.5,-432 361.5,-468"/>
<text text-anchor="middle" x="318.5" y="-446.3" font-family="Times,serif" font-size="14.00" fill="#000000">maxThreads</text>
</g>
<!-- MaxClients&#45;&gt;maxThreads -->
<g id="edge25" class="edge">
<title>MaxClients&#45;&gt;maxThreads</title>
<path fill="none" stroke="#000000" d="M321.4906,-503.8314C321.0628,-496.131 320.5541,-486.9743 320.0787,-478.4166"/>
<polygon fill="#000000" stroke="#000000" points="323.5724,-478.2037 319.523,-468.4133 316.5831,-478.592 323.5724,-478.2037"/>
</g>
<!-- ServerLimit -->
<g id="node27" class="node">
<title>ServerLimit</title>
<polygon fill="none" stroke="#ff0000" points="257.5,-468 173.5,-468 173.5,-432 257.5,-432 257.5,-468"/>
<text text-anchor="middle" x="215.5" y="-446.3" font-family="Times,serif" font-size="14.00" fill="#000000">ServerLimit</text>
</g>
<!-- MaxClients&#45;&gt;ServerLimit -->
<g id="edge26" class="edge">
<title>MaxClients&#45;&gt;ServerLimit</title>
<path fill="none" stroke="#000000" d="M295.4994,-503.8314C282.0669,-494.7927 265.6527,-483.7476 251.1961,-474.0198"/>
<polygon fill="#000000" stroke="#000000" points="252.7425,-470.8418 242.492,-468.1628 248.8346,-476.6494 252.7425,-470.8418"/>
</g>
<!-- max_connections -->
<g id="node22" class="node">
<title>max_connections</title>
<polygon fill="none" stroke="#c0c0c0" points="567.5,-324 451.5,-324 451.5,-288 567.5,-288 567.5,-324"/>
<text text-anchor="middle" x="509.5" y="-302.3" font-family="Times,serif" font-size="14.00" fill="#000000">max_connections</text>
</g>
<!-- hibernate.c3p0.max_size&#45;&gt;max_connections -->
<g id="edge19" class="edge">
<title>hibernate.c3p0.max_size&#45;&gt;max_connections</title>
<path fill="none" stroke="#000000" d="M500.5281,-359.8314C501.8115,-352.131 503.3376,-342.9743 504.7639,-334.4166"/>
<polygon fill="#000000" stroke="#000000" points="508.2394,-334.8526 506.4311,-324.4133 501.3347,-333.7018 508.2394,-334.8526"/>
</g>
<!-- max_connections&#45;&gt;memory usage -->
<g id="edge24" class="edge">
<title>max_connections&#45;&gt;memory usage</title>
<path fill="none" stroke="#000000" d="M542.3045,-287.8314C560.2745,-277.8788 582.6366,-265.4936 601.3794,-255.1129"/>
<polygon fill="#000000" stroke="#000000" points="603.2024,-258.1043 610.2546,-250.1975 599.8109,-251.9807 603.2024,-258.1043"/>
</g>
<!-- thread_pool&#45;&gt;worker_threads -->
<g id="edge37" class="edge">
<title>thread_pool&#45;&gt;worker_threads</title>
<path fill="none" stroke="#000000" d="M805.5,-359.8314C805.5,-352.131 805.5,-342.9743 805.5,-334.4166"/>
<polygon fill="#000000" stroke="#000000" points="809.0001,-334.4132 805.5,-324.4133 802.0001,-334.4133 809.0001,-334.4132"/>
</g>
<!-- Tomcat &#45;Xmx&#45;&gt;memory usage -->
<g id="edge38" class="edge">
<title>Tomcat &#45;Xmx&#45;&gt;memory usage</title>
<path fill="none" stroke="#000000" d="M689.2809,-359.7623C679.4731,-334.9846 661.8533,-290.4714 650.4226,-261.5939"/>
<polygon fill="#000000" stroke="#000000" points="653.5953,-260.0995 646.6605,-252.0896 647.0867,-262.6759 653.5953,-260.0995"/>
</g>
<!-- effective_cache_size -->
<g id="node28" class="node">
<title>effective_cache_size</title>
<polygon fill="none" stroke="#c0c0c0" points="845.5,-36 709.5,-36 709.5,0 845.5,0 845.5,-36"/>
<text text-anchor="middle" x="777.5" y="-14.3" font-family="Times,serif" font-size="14.00" fill="#000000">effective_cache_size</text>
</g>
<!-- memory usage&#45;&gt;effective_cache_size -->
<g id="edge28" class="edge">
<title>memory usage&#45;&gt;effective_cache_size</title>
<path fill="none" stroke="#000000" d="M691.5847,-222.8894C715.7443,-215.004 742.5774,-201.8027 758.5,-180 787.2571,-140.6232 785.9253,-80.9277 781.971,-46.0607"/>
<polygon fill="#000000" stroke="#000000" points="785.4354,-45.5596 780.6899,-36.0869 778.4925,-46.4514 785.4354,-45.5596"/>
</g>
<!-- RAM -->
<g id="node29" class="node">
<title>RAM</title>
<polygon fill="none" stroke="#000000" points="668.5,-108 618.5,-108 614.5,-104 614.5,-72 664.5,-72 668.5,-76 668.5,-108"/>
<polyline fill="none" stroke="#000000" points="664.5,-104 614.5,-104 "/>
<polyline fill="none" stroke="#000000" points="664.5,-104 664.5,-72 "/>
<polyline fill="none" stroke="#000000" points="664.5,-104 668.5,-108 "/>
<text text-anchor="middle" x="641.5" y="-86.3" font-family="Times,serif" font-size="14.00" fill="#000000">RAM</text>
</g>
<!-- memory usage&#45;&gt;RAM -->
<g id="edge29" class="edge">
<title>memory usage&#45;&gt;RAM</title>
<path fill="none" stroke="#000000" d="M639.7533,-215.7623C640.0944,-191.201 640.7049,-147.2474 641.1062,-118.3541"/>
<polygon fill="#000000" stroke="#000000" points="644.6094,-118.1373 641.2488,-108.0896 637.6101,-118.04 644.6094,-118.1373"/>
</g>
<!-- maxThreads&#45;&gt;hibernate.c3p0.max_size -->
<g id="edge27" class="edge">
<title>maxThreads&#45;&gt;hibernate.c3p0.max_size</title>
<path fill="none" stroke="#000000" d="M361.8309,-432.5708C386.3431,-422.7112 417.2178,-410.2923 443.3191,-399.7934"/>
<polygon fill="#000000" stroke="#000000" points="444.7273,-402.9996 452.6988,-396.0206 442.1151,-396.5053 444.7273,-402.9996"/>
</g>
<!-- RAM&#45;&gt;effective_cache_size -->
<g id="edge32" class="edge">
<title>RAM&#45;&gt;effective_cache_size</title>
<path fill="none" stroke="#000000" d="M668.6948,-75.6028C687.4827,-65.6562 712.8656,-52.2182 734.3891,-40.8234"/>
<polygon fill="#000000" stroke="#000000" points="736.1465,-43.8533 743.3467,-36.0811 732.8712,-37.6668 736.1465,-43.8533"/>
</g>
<!-- shared_buffers -->
<g id="node30" class="node">
<title>shared_buffers</title>
<polygon fill="none" stroke="#c0c0c0" points="691,-36 592,-36 592,0 691,0 691,-36"/>
<text text-anchor="middle" x="641.5" y="-14.3" font-family="Times,serif" font-size="14.00" fill="#000000">shared_buffers</text>
</g>
<!-- RAM&#45;&gt;shared_buffers -->
<g id="edge33" class="edge">
<title>RAM&#45;&gt;shared_buffers</title>
<path fill="none" stroke="#000000" d="M641.5,-71.8314C641.5,-64.131 641.5,-54.9743 641.5,-46.4166"/>
<polygon fill="#000000" stroke="#000000" points="645.0001,-46.4132 641.5,-36.4133 638.0001,-46.4133 645.0001,-46.4132"/>
</g>
<!-- swappiness -->
<g id="node31" class="node">
<title>swappiness</title>
<polygon fill="none" stroke="#000000" points="574,-36 495,-36 495,0 574,0 574,-36"/>
<text text-anchor="middle" x="534.5" y="-14.3" font-family="Times,serif" font-size="14.00" fill="#000000">swappiness</text>
</g>
<!-- RAM&#45;&gt;swappiness -->
<g id="edge34" class="edge">
<title>RAM&#45;&gt;swappiness</title>
<path fill="none" stroke="#000000" d="M614.4994,-71.8314C601.0669,-62.7927 584.6527,-51.7476 570.1961,-42.0198"/>
<polygon fill="#000000" stroke="#000000" points="571.7425,-38.8418 561.492,-36.1628 567.8346,-44.6494 571.7425,-38.8418"/>
</g>
<!-- work_mem&#45;&gt;RAM -->
<g id="edge39" class="edge">
<title>work_mem&#45;&gt;RAM</title>
<path fill="none" stroke="#000000" d="M691.5931,-143.8314C683.7187,-135.3694 674.208,-125.1489 665.5987,-115.8971"/>
<polygon fill="#000000" stroke="#000000" points="668.0092,-113.3497 658.6346,-108.4133 662.8847,-118.1183 668.0092,-113.3497"/>
</g>
</g>
</svg>
