<?xml version="1.0" encoding="UTF-8"?>
<svg xmlns:dc="http://purl.org/dc/elements/1.1/" xmlns:cc="http://creativecommons.org/ns#" xmlns:rdf="http://www.w3.org/1999/02/22-rdf-syntax-ns#" xmlns:svg="http://www.w3.org/2000/svg" xmlns="http://www.w3.org/2000/svg" version="1.1" id="svg2" viewBox="0 0 578 390.00001" height="390" width="578">
  <metadata id="metadata68">
    <rdf:RDF>
      <cc:Work rdf:about="">
        <dc:format>image/svg+xml</dc:format>
        <dc:type rdf:resource="http://purl.org/dc/dcmitype/StillImage"/>
        <dc:title/>
      </cc:Work>
    </rdf:RDF>
  </metadata>
  <defs id="defs66"/>
  <path id="path4" d="m 423.02513,105.42136 155.10906,0 0,28.19571 -155.10906,0 0,-28.19571 z" style="fill:#0d2c40"/>
  <text style="font-style:normal;font-variant:normal;font-weight:normal;font-stretch:normal;font-size:12.5px;font-family:'Open Sans';-inkscape-font-specification:'Open Sans';fill:#ffffff" id="text6" y="124.20672" x="461.78265">Web browser</text>
  <path id="path12" d="m 423.02513,190.0085 155.10906,0 0,28.19572 -155.10906,0 0,-28.19572 z" style="fill:#0d2c40"/>
  <text style="font-style:normal;font-variant:normal;font-weight:normal;font-stretch:normal;font-size:12.5px;font-family:'Open Sans';-inkscape-font-specification:'Open Sans';fill:#ffffff" id="text14" y="208.45784" x="462.00543">Apache httpd</text>
  <path id="path18" style="fill:#02a49c" d="m 500.5611,176.24601 a 1.2752622,1.2752622 0 0 0 -1.25586,1.29492 l 0,3.92969 a 1.2752622,1.2752622 0 1 0 2.54883,0 l 0,-3.92969 a 1.2752622,1.2752622 0 0 0 -1.29297,-1.29492 z"/>
  <path id="path22" style="fill:#02a49c" d="m 499.42438,181.02336 -2.38867,0.89648 3.54492,9.44922 3.54297,-9.44922 -2.38867,-0.89648 -0.16797,0.44726 -1.97461,0 -0.16797,-0.44726 z"/>
  <path id="path24" style="fill:#02a49c" d="m 500.5611,139.68546 a 1.2752622,1.2752622 0 0 0 -1.25586,1.29297 l 0,5.24805 a 1.2752622,1.2752622 0 1 0 2.54883,0 l 0,-5.24805 a 1.2752622,1.2752622 0 0 0 -1.29297,-1.29297 z"/>
  <path id="path26" style="fill:#02a49c" d="m 500.58063,131.08195 -3.54492,9.44922 2.38867,0.89648 0.16797,-0.44922 1.97461,0 0.16797,0.44922 2.38867,-0.89648 -3.54297,-9.44922 z"/>
  <path id="path30" d="m 505.56516,156.57224 c 2.75315,2.93329 2.75315,7.68901 0,10.62234 -2.75354,2.93329 -7.21748,2.93329 -9.97101,0 -2.75315,-2.93333 -2.75315,-7.68905 0,-10.62234 2.75353,-2.93333 7.21747,-2.93333 9.97101,0" style="fill:#0d2c40"/>
  <path id="path32" style="fill:#02a49c" d="m 500.5611,91.660067 a 1.2752622,1.2752622 0 0 0 -1.25586,1.29297 l 0,4.32227 a 1.2752622,1.2752622 0 1 0 2.54883,0 l 0,-4.32227 a 1.2752622,1.2752622 0 0 0 -1.29297,-1.29297 z"/>
  <path id="path36" style="fill:#02a49c" d="m 499.42438,96.828037 -2.38867,0.89649 3.54492,9.447263 3.54297,-9.447263 -2.38867,-0.89649 -0.16797,0.44727 -1.97461,0 -0.16797,-0.44727 z"/>
  <path id="path38" style="fill:#02a49c" d="m 500.5611,55.490158 a 1.2752622,1.2752622 0 0 0 -1.25586,1.29297 l 0,4.85742 a 1.2752622,1.2752622 0 1 0 2.54883,0 l 0,-4.85742 a 1.2752622,1.2752622 0 0 0 -1.29297,-1.29297 z"/>
  <path id="path44" d="m 505.56516,71.985105 c 2.75315,2.93329 2.75315,7.689002 0,10.622332 -2.75354,2.93329 -7.21748,2.93329 -9.97101,0 -2.75315,-2.93333 -2.75315,-7.689042 0,-10.622332 2.75353,-2.93333 7.21747,-2.93333 9.97101,0" style="fill:#0d2c40"/>
  <text style="font-style:normal;font-variant:normal;font-weight:normal;font-stretch:normal;font-size:12.5px;font-family:'Open Sans';-inkscape-font-specification:'Open Sans'" id="text46" y="165.13046" x="514.07275">http</text>
  <path style="fill:#0d2c40;stroke:#02d35f;stroke-width:4;stroke-linecap:round;stroke-linejoin:round;stroke-miterlimit:10" id="path52" d="m 522.1555,335.92445 c 11.91564,11.91586 11.91564,31.2353 0,43.15121 -11.916,11.91592 -31.23551,11.91592 -43.15143,0 -11.916,-11.91591 -11.916,-31.23535 0,-43.15121 11.91592,-11.91596 31.23543,-11.91596 43.15143,0"/>
  <text style="font-style:normal;font-variant:normal;font-weight:normal;font-stretch:normal;font-size:12.5px;font-family:'Open Sans';-inkscape-font-specification:'Open Sans';fill:#ffffff" id="text54" y="362.18753" x="472.78424">Database</text>
  <path id="path64" d="m 0,190.0085 155.10921,0 0,28.19572 -155.10921,0 0,-28.19572 z" style="fill:#0d2c40"/>
  <text style="font-style:normal;font-variant:normal;font-weight:normal;font-stretch:normal;font-size:12.5px;font-family:'Open Sans';-inkscape-font-specification:'Open Sans';fill:#ffffff" id="text66" y="208.79385" x="45.920082">mgr_check</text>
  <path id="path70" style="fill:#02a49c" d="m 77.53568,168.4921 a 1.2752622,1.2752622 0 0 0 -1.25586,1.29493 l 0,11.68359 a 1.27539,1.27539 0 0 0 2.55078,0 l 0,-11.68359 a 1.2752622,1.2752622 0 0 0 -1.29492,-1.29493 z"/>
  <path id="path72" style="fill:#02a49c" d="m 76.39896,181.02336 -2.38867,0.89648 3.54492,9.44922 3.54297,-9.44922 -2.38672,-0.89648 -0.16797,0.44726 -1.97656,0 -0.16797,-0.44726 z"/>
  <path id="path74" style="fill:#02a49c" d="m 77.53568,131.93156 a 1.2752622,1.2752622 0 0 0 -1.25586,1.29297 l 0,13.00195 a 1.27539,1.27539 0 0 0 2.55078,0 l 0,-13.00195 a 1.2752622,1.2752622 0 0 0 -1.29492,-1.29297 z"/>
  <path id="path58" d="m 0,105.42136 155.10921,0 0,28.19571 -155.10921,0 0,-28.19571 z" style="fill:#0d2c40"/>
  <path id="path78" d="m 82.54064,156.57224 c 2.75334,2.93329 2.75334,7.68901 0,10.62234 -2.75342,2.93329 -7.21747,2.93329 -9.97082,0 -2.75338,-2.93333 -2.75338,-7.68905 0,-10.62234 2.75335,-2.93333 7.2174,-2.93333 9.97082,0" style="fill:#0d2c40"/>
  <path id="path76" style="fill:#02a49c" d="m 76.39896,145.77921 -2.38867,0.89454 3.54492,9.44921 3.54297,-9.44921 -2.38672,-0.89454 -0.16797,0.44727 -1.97656,0 -0.16797,-0.44727 z"/>
  <path id="path80" d="m 423.02513,274.59564 155.10906,0 0,28.19572 -155.10906,0 0,-28.19572 z" style="fill:#0d2c40"/>
  <text style="font-style:normal;font-variant:normal;font-weight:normal;font-stretch:normal;font-size:12.5px;font-family:'Open Sans';-inkscape-font-specification:'Open Sans';fill:#ffffff" id="text82" y="293.05389" x="455.80426">Apache Tomcat</text>
  <path id="path86" style="fill:#02a49c" d="m 500.5611,260.8339 a 1.2752622,1.2752622 0 0 0 -1.25586,1.29297 l 0,3.93164 a 1.2752622,1.2752622 0 1 0 2.54883,0 l 0,-3.93164 a 1.2752622,1.2752622 0 0 0 -1.29297,-1.29297 z"/>
  <path id="path90" style="fill:#02a49c" d="m 499.42438,265.61125 -2.38867,0.89453 3.54492,9.44922 3.54297,-9.44922 -2.38867,-0.89453 -0.16797,0.44726 -1.97461,0 -0.16797,-0.44726 z"/>
  <path id="path92" style="fill:#02a49c" d="m 500.5611,224.66398 a 1.2752622,1.2752622 0 0 0 -1.25586,1.29492 l 0,4.85547 a 1.2752622,1.2752622 0 1 0 2.54883,0 l 0,-4.85547 a 1.2752622,1.2752622 0 0 0 -1.29297,-1.29492 z"/>
  <path id="path94" style="fill:#02a49c" d="m 500.58063,216.06046 -3.54492,9.44922 2.38867,0.89649 0.16797,-0.44727 1.97461,0 0.16797,0.44727 2.38867,-0.89649 -3.54297,-9.44922 z"/>
  <path id="path98" d="m 505.56516,241.15938 c 2.75315,2.93329 2.75315,7.68902 0,10.62235 -2.75354,2.93329 -7.21748,2.93329 -9.97101,0 -2.75315,-2.93333 -2.75315,-7.68906 0,-10.62235 2.75353,-2.93333 7.21747,-2.93333 9.97101,0" style="fill:#0d2c40"/>
  <text style="font-style:normal;font-variant:normal;font-weight:normal;font-stretch:normal;font-size:12.5px;font-family:'Open Sans';-inkscape-font-specification:'Open Sans'" id="text100" y="249.55586" x="514.55322">ajp</text>
  <text style="font-style:normal;font-variant:normal;font-weight:normal;font-stretch:normal;font-size:12.5px;font-family:'Open Sans';-inkscape-font-specification:'Open Sans';fill:#ffffff" id="text60" y="124.20672" x="64.139076">sshd</text>
  <path id="path116" style="fill:#02a49c" d="m 76.58256,96.767497 -2.44336,0.72656 2.87304,9.673833 4.19727,-9.177743 -2.32031,-1.06055 -0.19922,0.43555 -1.97071,-0.14062 -0.13671,-0.45703 z"/>
  <path id="path110" style="fill:#02a49c" d="m 304.6431,176.22062 a 1.2752622,1.2752622 0 0 0 -1.30859,1.36524 l 0.68555,12.13867 a 1.2752622,1.2752622 0 1 0 2.54492,-0.14453 l -0.6836,-12.13868 a 1.2752622,1.2752622 0 0 0 -1.23828,-1.2207 z"/>
  <path id="path130" style="fill:#02a49c" d="m 220.76224,174.3964 c -0.75732,-0.21536 -1.5305,-0.23786 -2.30468,0.0586 -1.09113,0.4178 -1.78474,1.33602 -2.30664,2.3789 -0.52191,1.04289 -0.89773,2.28733 -1.21876,3.6836 -0.64205,2.79254 -1.04121,6.19573 -1.46679,9.48437 -0.2293,1.6943 2.31867,2.02485 2.52929,0.32813 0.428,-3.30729 0.8307,-6.67093 1.42188,-9.24219 0.29559,-1.28563 0.64449,-2.37169 1.01562,-3.11328 0.37114,-0.7416 0.73817,-1.06039 0.9375,-1.13672 0.28285,-0.10831 1.03706,0.008 2.1875,0.77929 1.15045,0.77173 2.55046,2.05977 4.01758,3.55469 2.93426,2.98984 7.50394,8.33166 10.41345,10.75381 1.31304,1.17257 3.02205,-0.88029 1.63086,-1.95899 -2.59759,-2.16247 -7.19118,-7.48967 -10.22595,-10.58193 -1.51738,-1.54612 -2.98556,-2.9252 -4.41601,-3.88476 -0.71523,-0.47978 -1.45753,-0.88816 -2.21485,-1.10352 z"/>
  <path id="path120" d="m 236.12974,190.0085 155.10933,0 0,28.19572 -155.10933,0 0,-28.19572 z" style="fill:#0d2c40"/>
  <text style="font-style:normal;font-variant:normal;font-weight:normal;font-stretch:normal;font-size:12.5px;font-family:'Open Sans';-inkscape-font-specification:'Open Sans';fill:#ffffff" id="text122" y="208.79385" x="280.81393">Taskomatic</text>
  <path id="path126" style="fill:#02a49c" d="m 213.30912,212.63078 a 1.2752622,1.2752622 0 0 0 -1.17969,1.58203 c 0.88259,3.76595 1.35965,9.5081 2.0625,14.4082 0.35142,2.45005 0.75424,4.69134 1.35156,6.47266 0.29867,0.89066 0.64093,1.67013 1.11524,2.32812 0.47431,0.65799 1.14342,1.23576 2.01562,1.40235 1.28515,0.2454 2.38629,-0.37956 3.40821,-1.19141 1.02191,-0.81185 2.0449,-1.92997 3.11523,-3.24805 2.14066,-2.63614 4.44643,-6.08022 6.6875,-9.29492 a 1.2752622,1.2752622 0 1 0 -2.0918,-1.45898 c -2.25936,3.24094 -4.55775,6.66087 -6.57617,9.14648 -1.00921,1.2428 -1.95521,2.24929 -2.7207,2.85742 -0.76549,0.60813 -1.2715,0.69935 -1.34375,0.68555 -0.0491,-0.009 -0.18503,-0.0574 -0.42383,-0.38867 -0.2388,-0.33127 -0.51822,-0.9048 -0.76758,-1.64844 -0.49872,-1.48728 -0.90343,-3.63641 -1.24609,-6.02539 -0.68533,-4.77796 -1.13686,-10.50868 -2.10156,-14.625 a 1.2752622,1.2752622 0 0 0 -1.30469,-1.00195 z"/>
  <path id="path128" style="fill:#02a49c" d="m 236.76615,216.4296 -8.49609,5.44727 1.37695,2.14649 0.40234,-0.25782 1.58399,1.1836 -0.13282,0.45898 2.44922,0.71094 2.81641,-9.68946 z"/>
  <path id="path134" d="m 206.22593,200.25859 c -2.90265,3.09235 -2.90265,8.10604 0,11.19831 2.90258,3.09235 7.60874,3.09235 10.51131,0 2.90266,-3.09227 2.90266,-8.10596 0,-11.19831 -2.90257,-3.09228 -7.60873,-3.09228 -10.51131,0" style="fill:#0d2c40"/>
  <path id="path132" style="fill:#02a49c" d="m 213.66263,189.53703 -2.50195,0.49218 1.94727,9.90039 5.04492,-8.74023 -2.20899,-1.27344 -0.23828,0.41407 -1.95117,-0.32422 -0.0918,-0.46875 z"/>
  <text id="text136" y="210.2747" x="174.99854" style="font-style:normal;font-variant:normal;font-weight:normal;font-stretch:normal;font-family:'Open Sans';-inkscape-font-specification:'Open Sans';fill:#0d2c40">
    <tspan id="tspan13327" style="font-size:12.5px">time</tspan>
  </text>
  <path id="path140" style="fill:#02a49c" d="m 308.18021,224.25773 c -0.75418,0.003 -1.34114,0.65605 -1.26367,1.40625 1.95836,21.96894 -0.29132,48.23366 0.42578,71.7207 0.7171,23.48705 4.35598,44.41296 18.76367,55.373 14.52246,11.0474 39.08479,11.4314 66.44141,9.0762 27.35662,-2.3552 42.43259,-2.3743 68.11289,-3.2973 1.69927,-0.061 1.60747,-2.6101 -0.0918,-2.5489 -25.95312,0.9328 -41.04562,0.964 -68.23985,3.3052 -27.19423,2.3412 -51.25876,1.643 -64.67969,-8.5664 -13.31487,-10.12877 -17.0475,-30.15515 -17.75781,-53.41992 -0.71031,-23.26477 1.55588,-49.55115 -0.43359,-71.86914 -0.0502,-0.66754 -0.60794,-1.18267 -1.27734,-1.17969 z"/>
  <path id="path142" style="fill:#02a49c" d="m 307.04545,215.71867 -2.42969,9.79492 2.47461,0.61328 0.11523,-0.46289 1.96289,-0.22852 0.21875,0.42579 2.26758,-1.16407 -4.60937,-8.97851 z"/>
  <path id="path144" style="fill:#02a49c" d="m 461.30126,353.71413 -0.85157,2.4043 0.45117,0.1601 0.0352,1.9746 -0.44336,0.1758 0.93945,2.3711 9.38477,-3.7148 -9.51562,-3.3711 z"/>
  <text id="text146" y="247.34286" x="316.5412" style="font-style:normal;font-variant:normal;font-weight:normal;font-stretch:normal;font-size:12.5px;font-family:'Open Sans';-inkscape-font-specification:'Open Sans';fill:#0d2c40">ssh-push-default</text>
  <path d="m 500.5611,310.72632 a 1.2752622,1.2752622 0 0 0 -1.25586,1.29297 l 0,3.93164 a 1.2752622,1.2752622 0 1 0 2.54883,0 l 0,-3.93164 a 1.2752622,1.2752622 0 0 0 -1.29297,-1.29297 z" style="white-space:normal;overflow:visible;fill:#02a49c" white-space="normal" overflow="visible" id="path86-8"/>
  <path d="m 500.58063,302.12281 -3.54492,9.44921 2.38867,0.89454 0.16797,-0.44727 1.97461,0 0.16797,0.44727 2.38867,-0.89454 -3.54297,-9.44921 z" style="white-space:normal;overflow:visible;fill:#02a49c" white-space="normal" overflow="visible" id="path88-3"/>
  <path d="m 499.42438,315.50367 -2.38867,0.89453 3.54492,9.44922 3.54297,-9.44922 -2.38867,-0.89453 -0.16797,0.44726 -1.97461,0 -0.16797,-0.44726 z" style="white-space:normal;overflow:visible;fill:#02a49c" white-space="normal" overflow="visible" id="path90-0"/>
  <path id="path3404" d="m 166.86767,49.863018 c -22.88617,0.298237 -43.97225,2.625797 -56.94726,6.914063 -17.26217,5.705181 -25.70288,15.998694 -29.70508,24.849606 -4.0022,8.85092 -3.63672,16.34766 -3.63672,16.34766 l 2.49609,-0.12305 c 0,0 -0.34484,-6.87381 3.41797,-15.19531 3.76281,-8.321504 11.56327,-18.001819 28.21094,-23.503906 16.60983,-5.489581 54.32285,-7.81773 85.30273,-6.410156 30.97989,1.407574 61.40203,6.63675 75.31055,15.486328 12.25781,7.799274 19.83068,29.499264 24.00977,49.294927 4.17909,19.79565 6.14829,37.56445 6.14829,37.56445 l 2.4961,-0.13672 c 0,0 -1.97368,-17.93027 -6.19908,-37.94531 -4.22541,-20.015043 -11.52103,-42.238371 -25.11328,-50.886722 -14.89978,-9.48029 -45.36024,-14.458388 -76.53907,-15.875 -7.7947,-0.354153 -21.62322,-0.480272 -29.25195,-0.38086 z" style="color:#000000;font-style:normal;font-variant:normal;font-weight:normal;font-stretch:normal;font-size:medium;line-height:normal;font-family:sans-serif;text-indent:0;text-align:start;text-decoration:none;text-decoration-line:none;text-decoration-style:solid;text-decoration-color:#000000;letter-spacing:normal;word-spacing:normal;text-transform:none;direction:ltr;block-progression:tb;writing-mode:lr-tb;baseline-shift:baseline;text-anchor:start;white-space:normal;clip-rule:nonzero;display:inline;overflow:visible;visibility:visible;opacity:1;isolation:auto;mix-blend-mode:normal;color-interpolation:sRGB;color-interpolation-filters:linearRGB;solid-color:#000000;solid-opacity:1;fill:#02a49c;fill-opacity:1;fill-rule:evenodd;stroke:none;stroke-width:2.5;stroke-linecap:butt;stroke-linejoin:miter;stroke-miterlimit:4;stroke-dasharray:none;stroke-dashoffset:0;stroke-opacity:1;color-rendering:auto;image-rendering:auto;shape-rendering:auto;text-rendering:auto;enable-background:accumulate"/>
  <path id="path118" d="m 308.71132,156.57224 c 2.75334,2.93329 2.75334,7.68901 0,10.62234 -2.75342,2.93329 -7.21743,2.93329 -9.97085,0 -2.75335,-2.93333 -2.75335,-7.68905 0,-10.62234 2.75342,-2.93333 7.21743,-2.93333 9.97085,0" style="fill:#0d2c40"/>
  <path id="path112" style="fill:#02a49c" d="m 304.04935,167.63273 -3.00586,9.63281 2.43555,0.75977 0.14258,-0.45508 1.97265,-0.11328 0.19336,0.43945 2.33399,-1.0293 -4.07227,-9.23437 z"/>
  <path id="path40" style="fill:#02a49c" d="m 500.58063,46.886648 -3.54492,9.44922 2.38867,0.89648 0.16797,-0.44922 1.97461,0 0.16797,0.44922 2.38867,-0.89648 -3.54297,-9.44922 z"/>
  <path id="path42" style="fill:#02a49c" d="m 499.42438,61.191328 -2.38867,0.89649 3.54492,9.449217 3.54297,-9.449217 -2.38867,-0.89649 -0.16797,0.44922 -1.97461,0 -0.16797,-0.44922 z"/>
  <path id="path34" style="fill:#02a49c" d="m 500.58063,83.056557 -3.54492,9.44922 2.38867,0.89453 0.16797,-0.44727 1.97461,0 0.16797,0.44727 2.38867,-0.89453 -3.54297,-9.44922 z"/>
  <path id="path20" style="fill:#02a49c" d="m 500.58063,167.6425 -3.54492,9.44921 2.38867,0.89649 0.16797,-0.44727 1.97461,0 0.16797,0.44727 2.38867,-0.89649 -3.54297,-9.44921 z"/>
  <path id="path28" style="fill:#02a49c" d="m 499.42438,145.77921 -2.38867,0.89454 3.54492,9.44921 3.54297,-9.44921 -2.38867,-0.89454 -0.16797,0.44727 -1.97461,0 -0.16797,-0.44727 z"/>
  <path id="path88" style="fill:#02a49c" d="m 500.58063,252.23039 -3.54492,9.44921 2.38867,0.89454 0.16797,-0.44727 1.97461,0 0.16797,0.44727 2.38867,-0.89454 -3.54297,-9.44921 z"/>
  <path id="path96" style="fill:#02a49c" d="m 499.42438,230.3671 -2.38867,0.89454 3.54492,9.44922 3.54297,-9.44922 -2.38867,-0.89454 -0.16797,0.44727 -1.97461,0 -0.16797,-0.44727 z"/>
  <path d="M 524.57965,24.002507 C 524.57965,37.258297 513.82608,48 500.5805,48 487.32655,48 476.57966,37.258297 476.57966,24.002507 476.57966,10.745046 487.32655,0 500.5805,0 c 13.24557,0 23.99915,10.745046 23.99915,24.002507" style="fill:#71d6e0;fill-opacity:1;fill-rule:nonzero;stroke:none" id="path4835"/>
  <path id="path7423" d="M 500.57812 9.0253906 C 497.05822 9.0253906 493.98022 10.929183 492.29883 13.755859 C 492.28683 13.774249 492.27547 13.792167 492.26367 13.810547 C 492.03804 14.196687 491.83426 14.595772 491.66211 15.013672 C 491.65711 15.025442 491.64963 15.037401 491.64453 15.050781 C 491.54425 14.938784 491.40626 14.861328 491.24414 14.861328 L 489.28516 14.861328 C 488.98264 14.861328 488.73633 15.105643 488.73633 15.408203 L 488.73633 22.265625 C 488.73633 22.566513 488.98264 22.814453 489.28516 22.814453 L 491.24414 22.814453 C 491.44972 22.814453 491.59586 22.680831 491.68945 22.513672 C 491.77795 22.719278 491.86289 22.928034 491.96484 23.126953 C 489.1419 23.444557 486.77734 25.866033 486.77734 28.630859 L 486.77734 38.427734 C 486.77734 38.728622 487.02365 38.974609 487.32617 38.974609 L 513.76758 38.974609 C 514.0701 38.974609 514.31445 38.728622 514.31445 38.427734 L 514.31445 28.630859 C 514.31445 25.866033 511.9443 23.44623 509.11133 23.126953 C 509.21669 22.924689 509.31627 22.718435 509.4082 22.507812 C 509.5002 22.678317 509.64236 22.814453 509.84961 22.814453 L 511.80859 22.814453 C 512.1111 22.814453 512.35547 22.566513 512.35547 22.265625 L 512.35547 20.796875 L 512.35547 15.408203 L 512.35547 12.960938 C 512.35547 12.660049 512.11111 12.412109 511.80859 12.412109 C 511.50607 12.412109 511.25977 12.66005 511.25977 12.960938 L 511.25977 14.861328 L 509.84961 14.861328 C 509.7042 14.861328 509.59135 14.931783 509.49609 15.025391 C 508.05871 11.510016 504.60444 9.0253906 500.57812 9.0253906 z M 495.60156 14.978516 L 505.43164 14.978516 C 507.12306 14.978516 508.53842 16.113644 508.99805 17.658203 C 509.04155 18.007567 509.10547 18.352107 509.10547 18.714844 C 509.10547 23.447144 505.26847 27.283203 500.53516 27.283203 C 495.80352 27.283203 491.9668 23.447144 491.9668 18.714844 C 491.9668 18.290258 492.03171 17.88248 492.0918 17.474609 C 492.60658 16.025332 493.97699 14.978516 495.60156 14.978516 z M 510.39844 15.957031 L 511.26172 15.957031 L 511.26172 20.796875 L 511.26172 21.716797 L 510.39844 21.716797 L 510.39844 15.957031 z M 489.83203 15.958984 L 490.69531 15.958984 L 490.69531 21.716797 L 489.83203 21.716797 L 489.83203 15.958984 z M 502.50586 16.818359 C 502.20334 16.818359 501.95898 17.066299 501.95898 17.367188 C 501.95898 17.669747 502.20334 17.917969 502.50586 17.917969 L 505.43164 17.917969 C 506.35424 17.917969 506.42383 18.902518 506.42383 19.205078 C 506.42383 19.507637 506.67016 19.751953 506.97266 19.751953 C 507.27519 19.751953 507.52148 19.507637 507.52148 19.205078 C 507.52148 17.787561 506.68993 16.835919 505.45312 16.824219 C 505.44813 16.824219 505.44706 16.818359 505.44336 16.818359 L 502.50586 16.818359 z M 492.09766 23.238281 C 492.29822 23.606033 492.5255 23.955306 492.76953 24.292969 L 492.76953 27.722656 C 493.92946 29.28393 496.30492 30.328706 499.16797 30.529297 C 502.81323 30.78171 506.38182 29.66722 508.32227 27.679688 L 508.32227 24.373047 C 508.58635 24.016997 508.83461 23.65092 509.04688 23.259766 C 509.25412 23.338326 509.41797 23.500352 509.41797 23.734375 L 509.41797 27.898438 C 509.41797 28.035508 509.36723 28.167001 509.27539 28.265625 C 507.34329 30.378528 503.86144 31.660156 500.18945 31.660156 C 499.82509 31.660156 499.4595 31.647844 499.0918 31.621094 C 495.76912 31.390412 493.10051 30.144416 491.77344 28.207031 C 491.70994 28.116771 491.67578 28.008763 491.67578 27.898438 L 491.67578 23.734375 C 491.67578 23.480292 491.86367 23.300131 492.09766 23.238281 z M 491.9668 31.632812 C 493.61979 31.632812 494.96289 32.979318 494.96289 34.630859 C 494.96289 36.2824 493.61979 37.626953 491.9668 37.626953 C 490.31549 37.626953 488.9707 36.2824 488.9707 34.630859 C 488.9707 32.979318 490.31549 31.632812 491.9668 31.632812 z M 491.9668 32.730469 C 490.91885 32.730469 490.06641 33.582766 490.06641 34.630859 C 490.06641 35.678953 490.91885 36.53125 491.9668 36.53125 C 493.01474 36.53125 493.86719 35.678953 493.86719 34.630859 C 493.86719 33.582766 493.01475 32.730469 491.9668 32.730469 z M 504.46289 33.470703 L 509.36133 33.470703 C 509.66385 33.470703 509.9082 33.716971 509.9082 34.019531 C 509.9082 34.322091 509.66384 34.566406 509.36133 34.566406 L 504.46289 34.566406 C 504.16037 34.566406 503.91602 34.322091 503.91602 34.019531 C 503.91602 33.716971 504.16037 33.470703 504.46289 33.470703 z " style="fill:#0d2c40;fill-opacity:1;fill-rule:nonzero;stroke:none"/>
</svg>
  
  
  
  
  
  
  
  
  
  
  
  
  
  
  
  
  
  
  
  
  
  
  
  
  
  
  
  
  
  
  
  
  
  
  
  
  
  
  
  
  
  
  
  
  
  
  
  
  
  
  
  
  
  
  
  
  
  
  
  
  
  
  
  

