<svg data-name="Layer 1" xmlns="http://www.w3.org/2000/svg" viewBox="0 0 189.05 87.61"><path d="M186.06 80.8a2.94 2.94 0 1 0 3 2.94 3 3 0 0 0-3-2.94zm0 5.29a2.35 2.35 0 1 1 2.37-2.35 2.34 2.34 0 0 1-2.38 2.35zM57.72 63.93l-13.54-2c-2.33-.37-3.51-1.52-3.51-3.4a3 3 0 0 1 3-3h22v-8.14H43.7a11.36 11.36 0 0 0-11.74 11.17c0 5.14 3.09 10.47 10.16 11.56l13.54 2c2.34.37 3.51 1.52 3.51 3.41a3 3 0 0 1-3 3h-16c-3.25.09-6.67 2.58-6.67 7.47v.73h22.64a11.35 11.35 0 0 0 11.74-11.22c0-5.15-3.08-10.48-10.16-11.58zm87.67-5.37v16.95a11.36 11.36 0 0 0 11.75 11.17h23.75v-.73c0-4.88-3.42-7.37-6.68-7.47h-17.12a3 3 0 0 1-3-3 3.27 3.27 0 0 1 3.52-3.41h7.42c6.53 0 10.29-4 11.47-8.61h-17.83a5.28 5.28 0 0 0-4.57 2.55v-7.45a3 3 0 0 1 3-3h17.12c3.25-.09 6.68-2.59 6.68-7.47v-.72h-23.77a11.36 11.36 0 0 0-11.74 11.19z" fill="#0d2c40"/><path d="M187.33 83.21c0-.58-.43-.93-1.11-.93h-1.26v2.81h.62v-.88h.49l.61.91h.73l-.69-1a.87.87 0 0 0 .61-.91zm-1.12.45h-.63v-.83h.62c.3 0 .5.14.5.42s-.17.39-.49.39zm-53.25-19.73l-13.54-2c-2.33-.37-3.51-1.52-3.51-3.4a3 3 0 0 1 3-3h22v-8.14h-21.95a11.36 11.36 0 0 0-11.75 11.17c0 5.14 3.09 10.47 10.17 11.56l13.53 2c2.34.37 3.52 1.52 3.52 3.41a3 3 0 0 1-3 3H109.5v8.2h21.9a11.36 11.36 0 0 0 11.75-11.22c0-5.15-3.09-10.48-10.19-11.58zm-36.75 6.81a8.84 8.84 0 1 1-17.67 0V47.37h-8.51v22.84a17.35 17.35 0 1 0 34.69 0V47.37h-8.51z" fill="#0d2c40"/><path d="M96.38 18.21a4.502 4.502 0 1 0 .3-9 4.48 4.48 0 0 0-4.63 4.32 4.5 4.5 0 0 0 4.33 4.68zm1-6.72c1.1 0 2 .59 2 1.33s-.89 1.33-2 1.33-2-.6-2-1.33.95-1.32 2.04-1.32z" fill="#02d35f"/><path d="M107.27 19.89c.16-.11.75-.5.61-1-.58-2-2.56-8.76-4.22-10.47a6.91 6.91 0 0 0-1.65-1.43c-6.33-3.69-21.36-5.92-22.07-6a.13.13 0 0 0-.17.14s-.06 3.12-.06 3.47C78.18 4.08 67.02.48 56.55.11c-8.87-.31-21-.73-38.09 9.79l-.5.31c-8.07 5-13.63 11.22-16.53 18.42A21.49 21.49 0 0 0 .5 40.81a18.85 18.85 0 0 0 2.82 6.11 18.34 18.34 0 0 0 13.34 7.59c7.58.7 13.3-2.73 15.38-9.11a12.58 12.58 0 0 0-5.39-14.19 11.22 11.22 0 0 0-11.83-.27 7.91 7.91 0 0 0-3.69 6.7 7.37 7.37 0 0 0 7.1 7.29 8.55 8.55 0 0 0 2.73-.43 4.2 4.2 0 0 0 1-.46l.11-.07h.07a2.4 2.4 0 0 0-1.79-4.36h-.16l-.23.07-.33.11a5.57 5.57 0 0 1-1.3.18 2.4 2.4 0 0 1-2.05-2.39 2.86 2.86 0 0 1 .44-1.42 4.22 4.22 0 0 1 3.92-1.46 6.58 6.58 0 0 1 5.63 4 6.9 6.9 0 0 1-.76 7.22c-1.6 2.06-4.43 2.94-8.2 2.53a11.49 11.49 0 0 1-9.07-16.33c3.85-7.27 11.12-7.19 15.11-6.5 5.67 1 14.26 6.06 17.49 17.82h7.84c-1-3-1.53-11.68 7.3-11.68 9.68 0 10.9 6.82 13.64 11.68h8.3c-2.18-3.12-3.72-6.6-3.23-9.53.72-4.32 4.15-3.93 8.91-3.4 1.56.18 3.33.38 5.15.42a33.2 33.2 0 0 0 13.14-2.39 17.43 17.43 0 0 0 4.47-2.39 2.62 2.62 0 0 0 .65-1.14l.12-.31c.14-.37.32-1.15.44-1.58.23-.87-.55-.41-.55-.41a19.93 19.93 0 0 1-8.7 2.66c-4.31.09-13-4.34-13.93-4.81l-.09-.1c-.22-.52-1.53-3.61-1.8-4.26 6.24 4.11 11.46 6.39 15.46 6.74 4.39.4 7.84-2.02 9.31-3.05zm-17.18-6.33a6.44 6.44 0 1 1 6.21 6.65 6.46 6.46 0 0 1-6.21-6.65z" fill="#02d35f"/></svg>