<svg version="1.1" id="Layer_1" xmlns="http://www.w3.org/2000/svg" xmlns:xlink="http://www.w3.org/1999/xlink" x="0px" y="0px"
	 width="100%" viewBox="0 0 566 349" enable-background="new 0 0 566 349" xml:space="preserve">
<path fill="#FFFFFF" opacity="1.000000" stroke="none" 
	d="
M409.000000,350.000000 
	C272.666656,350.000000 136.833328,350.000000 1.000000,350.000000 
	C1.000000,233.666672 1.000000,117.333336 1.000000,1.000000 
	C189.666672,1.000000 378.333344,1.000000 567.000000,1.000000 
	C567.000000,117.333336 567.000000,233.666672 567.000000,350.000000 
	C514.500000,350.000000 462.000000,350.000000 409.000000,350.000000 
M315.471619,11.801219 
	C315.306458,11.838455 315.141266,11.875692 314.050018,11.772152 
	C289.229645,11.772635 264.408813,11.712405 239.589752,11.893435 
	C237.685699,11.907324 234.917953,13.109403 234.027588,14.625798 
	C219.870850,38.736553 205.927826,62.973236 192.061722,87.252968 
	C191.331635,88.531380 191.721115,90.449181 191.829361,92.763313 
	C204.560120,114.884674 217.753311,136.758850 229.778870,159.257156 
	C234.179855,167.490906 239.321075,170.583817 248.942261,168.843140 
	C269.946228,168.806335 290.950195,168.769531 312.658051,168.918533 
	C313.129883,168.835052 313.601746,168.751556 314.982147,168.778809 
	C317.974792,168.813354 320.984680,169.046234 323.951843,168.788010 
	C325.195801,168.679764 326.870087,167.833344 327.464844,166.809204 
	C335.132538,153.606003 342.640472,140.310043 350.621948,126.842575 
	C350.858459,126.596649 350.956421,126.304283 351.368164,125.450111 
	C357.610657,114.673553 363.913971,103.931206 370.017731,93.076599 
	C370.770050,91.738655 371.198090,89.377686 370.527222,88.205994 
	C360.140503,70.064827 349.547180,52.041927 338.892395,33.297272 
	C336.184418,28.553589 333.491058,23.801472 330.765228,19.068073 
	C325.947845,10.702802 325.939575,10.707571 315.471619,11.801219 
M387.392639,277.781342 
	C387.392639,296.727142 387.392639,315.672913 387.392639,334.611511 
	C391.943970,334.611511 395.843475,334.611511 400.322571,334.611511 
	C400.322571,320.623322 400.322571,306.987183 400.322571,292.258606 
	C411.427063,304.962402 422.194672,316.375885 431.832794,328.674469 
	C436.940735,335.192383 442.619171,335.755737 449.827942,334.524292 
	C449.827942,313.895844 449.827942,293.332581 449.827942,272.489441 
	C445.823730,272.489441 442.087158,272.489441 437.720428,272.489441 
	C437.720428,286.790253 437.720428,300.831085 437.720428,314.871918 
	C435.455505,314.019501 434.257690,312.769806 433.140930,311.451416 
	C424.096344,300.774048 414.573914,290.451904 406.218689,279.258881 
	C401.242126,272.592102 395.624329,271.028778 387.748016,272.752808 
	C387.642578,273.972809 387.517914,275.414795 387.392639,277.781342 
M274.874451,285.511017 
	C274.874451,281.234863 274.874451,276.958710 274.874451,272.494507 
	C270.369293,272.494507 266.480225,272.494507 262.369019,272.494507 
	C262.369019,293.369080 262.369019,313.922058 262.369019,334.624634 
	C283.313263,334.624634 303.990356,334.624634 324.599274,334.624634 
	C324.599274,313.690796 324.599274,293.138611 324.599274,272.553772 
	C320.353149,272.553772 316.466919,272.553772 311.953125,272.553772 
	C311.953125,289.297272 311.953125,305.669922 311.953125,321.845581 
	C299.262054,321.845581 287.210541,321.845581 274.874329,321.845581 
	C274.874329,309.781555 274.874329,298.144135 274.874451,285.511017 
M18.612217,334.993225 
	C37.026093,334.993225 55.439968,334.993225 73.824936,334.993225 
	C73.824936,313.751129 73.824936,293.197510 73.824936,272.515381 
	C69.742706,272.515381 66.010902,272.515381 61.658577,272.515381 
	C61.658577,289.205658 61.658577,305.579865 61.658577,321.866394 
	C48.823360,321.866394 36.616802,321.866394 23.971607,321.866394 
	C23.971607,305.200104 23.971607,288.955841 23.971607,272.454407 
	C19.769501,272.454407 16.011242,272.454407 11.894415,272.454407 
	C11.894415,293.291840 11.894415,313.989532 11.894415,334.993195 
	C14.011800,334.993195 15.830785,334.993195 18.612217,334.993225 
M157.863434,279.590210 
	C153.839218,269.963928 145.754456,272.139557 137.453476,272.459351 
	C138.560486,274.413910 139.259003,275.841400 140.130188,277.154266 
	C146.387909,286.585083 152.881271,295.868256 158.840515,305.483002 
	C160.635742,308.379456 161.598083,312.131104 161.850800,315.571167 
	C162.319626,321.952728 161.985107,328.393311 161.985107,334.712646 
	C166.568558,334.712646 170.342209,334.712646 174.644089,334.712646 
	C174.644089,327.666473 174.426346,320.864471 174.752853,314.088715 
	C174.880783,311.434143 175.696686,308.499573 177.113052,306.274109 
	C183.457458,296.305450 190.139877,286.552185 196.675171,276.704529 
	C197.517242,275.435669 198.212692,274.069550 199.294281,272.197784 
	C195.665817,272.197784 192.977600,272.444275 190.352371,272.142639 
	C185.912979,271.632599 182.988174,273.137634 180.530792,277.023712 
	C176.867828,282.816284 172.542343,288.189880 168.242401,294.093719 
	C164.648987,289.092590 161.452087,284.643311 157.863434,279.590210 
M545.412842,272.194244 
	C543.002075,272.194244 540.591248,272.194244 538.267151,272.194244 
	C538.267151,293.562500 538.267151,314.108826 538.267151,334.690186 
	C542.354126,334.690186 546.098755,334.690186 550.269897,334.690186 
	C550.269897,314.632050 550.236145,294.870117 550.305054,275.108551 
	C550.315796,272.019562 548.419678,272.131897 545.412842,272.194244 
z"/>
<path fill="#2FE8ED" opacity="1.000000" stroke="none" 
	d="
M191.589386,92.069321 
	C191.721115,90.449181 191.331635,88.531380 192.061722,87.252968 
	C205.927826,62.973236 219.870850,38.736553 234.027588,14.625798 
	C234.917953,13.109403 237.685699,11.907324 239.589752,11.893435 
	C264.408813,11.712405 289.229645,11.772635 314.515320,12.318574 
	C315.021545,22.584524 315.062469,32.304054 315.048676,42.313602 
	C314.916229,42.989323 314.838531,43.375027 314.396851,43.836845 
	C292.763184,51.873981 271.472229,59.779675 250.280441,67.942924 
	C249.095566,68.399345 248.092255,70.976608 248.080063,72.574959 
	C247.944168,90.376808 248.020370,108.180267 248.021576,125.994064 
	C248.003784,126.004829 247.981903,126.040962 247.633011,125.993256 
	C233.161743,117.081429 219.075958,108.158157 204.894897,99.388954 
	C200.595139,96.730110 196.031921,94.497284 191.589386,92.069321 
z"/>
<path fill="#0F7774" opacity="1.000000" stroke="none" 
	d="
M339.001678,33.991653 
	C349.547180,52.041927 360.140503,70.064827 370.527222,88.205994 
	C371.198090,89.377686 370.770050,91.738655 370.017731,93.076599 
	C363.913971,103.931206 357.610657,114.673553 350.679230,125.708557 
	C338.752777,125.967010 327.515289,125.967010 316.421082,125.967010 
	C316.163177,124.639114 315.987274,124.154839 315.986755,123.670380 
	C315.960510,97.874069 315.932373,72.077705 315.980499,46.281494 
	C315.983185,44.853275 316.630585,43.426266 317.364227,42.001480 
	C324.834290,39.333401 331.917969,36.662525 339.001678,33.991653 
z"/>
<path fill="#27BCC0" opacity="1.000000" stroke="none" 
	d="
M387.392944,277.319061 
	C387.517914,275.414795 387.642578,273.972809 387.748016,272.752808 
	C395.624329,271.028778 401.242126,272.592102 406.218689,279.258881 
	C414.573914,290.451904 424.096344,300.774048 433.140930,311.451416 
	C434.257690,312.769806 435.455505,314.019501 437.720428,314.871918 
	C437.720428,300.831085 437.720428,286.790253 437.720428,272.489441 
	C442.087158,272.489441 445.823730,272.489441 449.827942,272.489441 
	C449.827942,293.332581 449.827942,313.895844 449.827942,334.524292 
	C442.619171,335.755737 436.940735,335.192383 431.832794,328.674469 
	C422.194672,316.375885 411.427063,304.962402 400.322571,292.258606 
	C400.322571,306.987183 400.322571,320.623322 400.322571,334.611511 
	C395.843475,334.611511 391.943970,334.611511 387.392639,334.611511 
	C387.392639,315.672913 387.392639,296.727142 387.392944,277.319061 
z"/>
<path fill="#2DBDC1" opacity="1.000000" stroke="none" 
	d="
M274.874390,286.008850 
	C274.874329,298.144135 274.874329,309.781555 274.874329,321.845581 
	C287.210541,321.845581 299.262054,321.845581 311.953125,321.845581 
	C311.953125,305.669922 311.953125,289.297272 311.953125,272.553772 
	C316.466919,272.553772 320.353149,272.553772 324.599274,272.553772 
	C324.599274,293.138611 324.599274,313.690796 324.599274,334.624634 
	C303.990356,334.624634 283.313263,334.624634 262.369019,334.624634 
	C262.369019,313.922058 262.369019,293.369080 262.369019,272.494507 
	C266.480225,272.494507 270.369293,272.494507 274.874451,272.494507 
	C274.874451,276.958710 274.874451,281.234863 274.874390,286.008850 
z"/>
<path fill="#28BCC0" opacity="1.000000" stroke="none" 
	d="
M18.130993,334.993225 
	C15.830785,334.993195 14.011800,334.993195 11.894415,334.993195 
	C11.894415,313.989532 11.894415,293.291840 11.894415,272.454407 
	C16.011242,272.454407 19.769501,272.454407 23.971607,272.454407 
	C23.971607,288.955841 23.971607,305.200104 23.971607,321.866394 
	C36.616802,321.866394 48.823360,321.866394 61.658577,321.866394 
	C61.658577,305.579865 61.658577,289.205658 61.658577,272.515381 
	C66.010902,272.515381 69.742706,272.515381 73.824936,272.515381 
	C73.824936,293.197510 73.824936,313.751129 73.824936,334.993225 
	C55.439968,334.993225 37.026093,334.993225 18.130993,334.993225 
z"/>
<path fill="#27BCC0" opacity="1.000000" stroke="none" 
	d="
M191.709381,92.416321 
	C196.031921,94.497284 200.595139,96.730110 204.894897,99.388954 
	C219.075958,108.158157 233.161743,117.081429 247.647186,126.259247 
	C248.029617,126.749802 248.048965,126.926666 248.046448,127.565201 
	C248.023743,141.574585 248.022903,155.122314 248.022064,168.670029 
	C239.321075,170.583817 234.179855,167.490906 229.778870,159.257156 
	C217.753311,136.758850 204.560120,114.884674 191.709381,92.416321 
z"/>
<path fill="#2A9B98" opacity="1.000000" stroke="none" 
	d="
M248.482162,168.756592 
	C248.022903,155.122314 248.023743,141.574585 248.316208,127.655067 
	C249.128464,127.515869 249.649109,127.748474 250.506668,128.014557 
	C261.680969,134.752884 272.573669,141.370392 283.339233,148.188644 
	C292.963654,154.284164 302.447784,160.601212 311.996643,167.139465 
	C311.984375,167.883179 311.969269,168.307953 311.954163,168.732727 
	C290.950195,168.769531 269.946228,168.806335 248.482162,168.756592 
z"/>
<path fill="#2BBDC1" opacity="1.000000" stroke="none" 
	d="
M158.059296,279.892120 
	C161.452087,284.643311 164.648987,289.092590 168.242401,294.093719 
	C172.542343,288.189880 176.867828,282.816284 180.530792,277.023712 
	C182.988174,273.137634 185.912979,271.632599 190.352371,272.142639 
	C192.977600,272.444275 195.665817,272.197784 199.294281,272.197784 
	C198.212692,274.069550 197.517242,275.435669 196.675171,276.704529 
	C190.139877,286.552185 183.457458,296.305450 177.113052,306.274109 
	C175.696686,308.499573 174.880783,311.434143 174.752853,314.088715 
	C174.426346,320.864471 174.644089,327.666473 174.644089,334.712646 
	C170.342209,334.712646 166.568558,334.712646 161.985107,334.712646 
	C161.985107,328.393311 162.319626,321.952728 161.850800,315.571167 
	C161.598083,312.131104 160.635742,308.379456 158.840515,305.483002 
	C152.881271,295.868256 146.387909,286.585083 140.130188,277.154266 
	C139.259003,275.841400 138.560486,274.413910 137.453476,272.459351 
	C145.754456,272.139557 153.839218,269.963928 158.059296,279.892120 
z"/>
<path fill="#2A9C99" opacity="1.000000" stroke="none" 
	d="
M350.188782,127.037537 
	C342.640472,140.310043 335.132538,153.606003 327.464844,166.809204 
	C326.870087,167.833344 325.195801,168.679764 323.951843,168.788010 
	C320.984680,169.046234 317.974792,168.813354 314.550690,168.521545 
	C314.119232,168.264282 314.171997,167.860764 314.294922,167.876251 
	C314.417847,167.891724 314.664001,167.920105 315.033020,167.711014 
	C315.599731,165.882187 315.960388,164.263290 315.968597,162.642593 
	C316.020844,152.328079 316.150848,142.009628 315.913940,131.700302 
	C315.827179,127.924286 317.042267,126.839836 320.743866,126.930054 
	C330.553894,127.169151 340.373169,127.027618 350.188782,127.037537 
z"/>
<path fill="#26BBBF" opacity="1.000000" stroke="none" 
	d="
M545.878174,272.194580 
	C548.419678,272.131897 550.315796,272.019562 550.305054,275.108551 
	C550.236145,294.870117 550.269897,314.632050 550.269897,334.690186 
	C546.098755,334.690186 542.354126,334.690186 538.267151,334.690186 
	C538.267151,314.108826 538.267151,293.562500 538.267151,272.194244 
	C540.591248,272.194244 543.002075,272.194244 545.878174,272.194580 
z"/>
<path fill="#2C9C99" opacity="1.000000" stroke="none" 
	d="
M338.947021,33.644463 
	C331.917969,36.662525 324.834290,39.333401 317.124512,42.005066 
	C316.498413,42.005856 316.018616,41.993320 316.010437,41.525394 
	C315.989563,31.346865 315.976868,21.636261 315.964172,11.925656 
	C325.939575,10.707571 325.947845,10.702802 330.765228,19.068073 
	C333.491058,23.801472 336.184418,28.553589 338.947021,33.644463 
z"/>
<path fill="#4DA7A5" opacity="1.000000" stroke="none" 
	d="
M316.018616,41.993320 
	C316.018616,41.993320 316.498413,42.005856 316.738159,42.002274 
	C316.630585,43.426266 315.983185,44.853275 315.980499,46.281494 
	C315.932373,72.077705 315.960510,97.874069 315.986755,123.670380 
	C315.987274,124.154839 316.163177,124.639114 316.421082,125.967010 
	C327.515289,125.967010 338.752777,125.967010 350.453064,125.966248 
	C350.956421,126.304283 350.858459,126.596649 350.405365,126.940048 
	C340.373169,127.027618 330.553894,127.169151 320.743866,126.930054 
	C317.042267,126.839836 315.827179,127.924286 315.913940,131.700302 
	C316.150848,142.009628 316.020844,152.328079 315.968597,162.642593 
	C315.960388,164.263290 315.599731,165.882187 315.161560,167.263687 
	C314.921021,153.803116 314.921021,140.580765 314.921021,127.054710 
	C293.364410,127.054710 272.589478,127.047607 251.814682,127.093513 
	C251.265717,127.094727 250.718033,127.672295 250.169739,127.981087 
	C249.649109,127.748474 249.128464,127.515869 248.338074,127.193405 
	C248.048965,126.926666 248.029617,126.749802 247.996094,126.306946 
	C247.981903,126.040962 248.003784,126.004829 248.485748,126.001640 
	C269.445404,125.999657 289.923126,125.998260 310.400848,126.005638 
	C312.761566,126.006493 315.059570,126.375984 315.036285,122.659500 
	C314.871399,96.360367 314.836884,70.060417 314.760834,43.760731 
	C314.838531,43.375027 314.916229,42.989323 315.277069,42.306061 
	C315.560181,42.008499 316.018616,41.993320 316.018616,41.993320 
z"/>
<path fill="#52B2B0" opacity="1.000000" stroke="none" 
	d="
M316.010437,41.525394 
	C316.018616,41.993320 315.560181,42.008499 315.331787,42.016041 
	C315.062469,32.304054 315.021545,22.584524 314.978333,12.388962 
	C315.141266,11.875692 315.306458,11.838455 315.717896,11.863438 
	C315.976868,21.636261 315.989563,31.346865 316.010437,41.525394 
z"/>
<path fill="#4DA7A5" opacity="1.000000" stroke="none" 
	d="
M314.171997,167.860764 
	C314.171997,167.860764 314.119232,168.264282 314.096405,168.466171 
	C313.601746,168.751556 313.129883,168.835052 312.306091,168.825623 
	C311.969269,168.307953 311.984375,167.883179 312.294922,167.222687 
	C313.117584,167.278229 313.644806,167.569489 314.171997,167.860764 
z"/>
<path fill="#25BBBF" opacity="1.000000" stroke="none" 
	d="
M314.396851,43.836845 
	C314.836884,70.060417 314.871399,96.360367 315.036285,122.659500 
	C315.059570,126.375984 312.761566,126.006493 310.400848,126.005638 
	C289.923126,125.998260 269.445404,125.999657 248.503525,125.990875 
	C248.020370,108.180267 247.944168,90.376808 248.080063,72.574959 
	C248.092255,70.976608 249.095566,68.399345 250.280441,67.942924 
	C271.472229,59.779675 292.763184,51.873981 314.396851,43.836845 
z"/>
<path fill="#0E7774" opacity="1.000000" stroke="none" 
	d="
M314.294922,167.876251 
	C313.644806,167.569489 313.117584,167.278229 312.292114,166.903732 
	C302.447784,160.601212 292.963654,154.284164 283.339233,148.188644 
	C272.573669,141.370392 261.680969,134.752884 250.506668,128.014557 
	C250.718033,127.672295 251.265717,127.094727 251.814682,127.093513 
	C272.589478,127.047607 293.364410,127.054710 314.921021,127.054710 
	C314.921021,140.580765 314.921021,153.803116 314.792511,167.472778 
	C314.664001,167.920105 314.417847,167.891724 314.294922,167.876251 
z"/>
</svg>