<?xml version="1.0" encoding="UTF-8"?>
<!DOCTYPE svg PUBLIC "-//W3C//DTD SVG 1.1//EN" "http://www.w3.org/Graphics/SVG/1.1/DTD/svg11.dtd">
<svg version="1.1" xmlns="http://www.w3.org/2000/svg" x="0" y="0" width="36" height="36" viewBox="0 0 36 36">
  <!-- "Hand" icon: (c) Megan Strickland/The Noun Project (CC0) -->
  <circle cx="18" cy="18" r="18" fill="#FE7C3F" />
  <path fill="#FFFFFF"
     d="m 24.99972,17.2144 c 0,-0.9568 -0.48046,-1.1224 -1.09966,-1.1224 -0.61919,0 -0.9,0.5024 -0.9,1.1224 V 22 h -1 V 9.4695 c 0,-0.62 -0.38081,-1.1224 -1,-1.1224 -0.6192,0 -1,0.5024 -1,1.1224 V 18 h -1 V 8.1224 C 19.00028,7.5029 18.61881,7 18.00006,7 c -0.61897,0 -0.96158,0.5041 -1,1.1224 V 18 h -1 V 9.4695 c 0,-0.62 -0.38102,-1.1224 -1,-1.1224 -0.61897,0 -1.00011,0.5024 -1.00009,1.1224 L 14.00016,19 h -0.99991 l -1.9e-4,-5.4898 c -2e-5,-0.6197 -0.38103,-1.1224 -1,-1.1224 -0.61876,0 -1,0.5027 -1,1.4593 v 9.3163 c 0.001,2.9225 3.40982,5.8357 7,5.8366 3.59018,0 6.99878,-2.9141 6.99966,-6.5102 h 2.2e-4 l -2.2e-4,-5.2752 z" />
</svg>
