<?xml version="1.0" encoding="UTF-8"?>
<!DOCTYPE svg PUBLIC "-//W3C//DTD SVG 1.1//EN" "http://www.w3.org/Graphics/SVG/1.1/DTD/svg11.dtd">
<svg version="1.1" xmlns="http://www.w3.org/2000/svg" x="0" y="0" width="36" height="36" viewBox="0 0 36 36">
  <!-- "!" symbol from Open Sans: (c) Google (under Apache License v2) -->
  <circle cx="18" cy="18" r="18" fill="#2453FF" />
  <path fill="#FFFFFF"
    d="M 16.22662,22.4352 15.4731,8 h 5.11216 l -0.75353,14.4352 z m -0.14775,3.1766 c 0.44326,-0.4235 1.08843,-0.6353 1.93553,-0.6353 0.81756,0 1.44795,0.2167 1.89121,0.6501 0.45309,0.4334 0.67964,1.0539 0.67965,1.8616 -1e-5,0.7782 -0.22656,1.3938 -0.67965,1.8469 C 19.4525,29.7784 18.8221,30 18.0144,30 17.187,30 16.54675,29.7833 16.09366,29.3499 15.64055,28.9066 15.414,28.2861 15.414,27.4882 c 0,-0.8274 0.22163,-1.4528 0.66487,-1.8764 z"
     />
</svg>
