<?xml version="1.0" encoding="UTF-8"?>
<!DOCTYPE svg
[
  <!ENTITY c_white         "rgb(255, 255, 255)">
  <!ENTITY c_black         "rgb(  0,   0,   0)">
  <!ENTITY c_fog           "rgb(239, 239, 239)">
  <!ENTITY c_pine          "rgb( 12,  50,  44)">
  <!ENTITY c_jungle        "rgb( 48, 186, 120)">
  <!ENTITY c_midnight      "rgb( 25,  32, 114)">
  <!ENTITY c_waterhole     "rgb( 36,  83, 255)">
  <!ENTITY c_persimmon     "rgb(254, 124,  63)">
  <!ENTITY c_mint          "rgb(144, 235, 205)">
]>
<svg xmlns="http://www.w3.org/2000/svg" version="1.1" height="440" width="550" viewBox="0 0 550 442">
   <rect x="0"   y="0"   width="64"  height="10"  fill="&c_mint;"/>
   <rect x="64"  y="0"   width="162" height="10"  fill="&c_waterhole;"/>
   <rect x="334" y="0"   width="108" height="10"  fill="&c_persimmon;"/>
   <rect x="442" y="0"   width="108" height="10"  fill="&c_jungle;"/>

   <rect x="0"   y="54"  width="226" height="10"  fill="&c_jungle;"/>
   <rect x="226" y="54"  width="216" height="10"  fill="&c_waterhole;"/>
   <rect x="442" y="54"  width="108" height="10"  fill="&c_persimmon;"/>

   <rect x="118" y="108" width="324" height="10"  fill="&c_mint;"/>
   <rect x="442" y="108" width="108" height="10"  fill="&c_waterhole;"/>

   <rect x="0"   y="162" width="216" height="10"  fill="&c_persimmon;"/>
   <rect x="216" y="162" width="108" height="10"  fill="&c_waterhole;"/>
   <rect x="442" y="162" width="108" height="10"  fill="&c_mint;"/>

   <rect x="0"   y="216" width="216" height="10"  fill="&c_waterhole;"/>
   <rect x="334" y="216" width="108" height="10"  fill="&c_persimmon;"/>
   <rect x="442" y="216" width="108" height="10"  fill="&c_jungle;"/>

   <rect x="0"   y="270" width="216" height="10"  fill="&c_jungle;"/>
   <rect x="216" y="270" width="226" height="10"  fill="&c_waterhole;"/>
   <rect x="442" y="270" width="108" height="10"  fill="&c_persimmon;"/>

   <rect x="54"  y="324" width="388" height="10"  fill="&c_mint;"/>
   <rect x="442" y="324" width="108" height="10"  fill="&c_waterhole;"/>

   <rect x="0"   y="378" width="216" height="10"  fill="&c_persimmon;"/>
   <rect x="280" y="378" width="162" height="10"  fill="&c_waterhole;"/>
   <rect x="442" y="378" width="108" height="10"  fill="&c_mint;"/>

   <rect x="0"   y="432" width="216" height="10"  fill="&c_mint;"/>
   <rect x="216" y="432" width="226" height="10"  fill="&c_jungle;"/>
</svg>
