<?xml version="1.0" encoding="UTF-8"?>
<svg id="Artwork" xmlns="http://www.w3.org/2000/svg" viewBox="0 0 40 40">
  <defs>
    <style>
      .cls-1 {
        fill: #efefef;
        stroke-width: 0px;
      }
    </style>
  </defs>
  <path class="cls-1" d="M18,31c-7.17,0-13-5.83-13-13s5.83-13,13-13,13,5.83,13,13c0,3.47-1.35,6.74-3.81,9.19-2.46,2.46-5.72,3.81-9.19,3.81ZM18,7c-6.07,0-11,4.93-11,11s4.93,11,11,11c2.94,0,5.7-1.14,7.78-3.22,2.08-2.08,3.22-4.84,3.22-7.78,0-6.07-4.93-11-11-11Z"/>
  <rect class="cls-1" x="29.25" y="24.95" width="2" height="10.61" transform="translate(-12.53 30.25) rotate(-45)"/>
  <path class="cls-1" d="M27,18h-2c0-3.86-3.14-7-7-7v-2c4.96,0,9,4.04,9,9Z"/>
</svg>