<?xml version="1.0" encoding="UTF-8" standalone="no"?><!DOCTYPE svg PUBLIC "-//W3C//DTD SVG 1.1//EN" "http://www.w3.org/Graphics/SVG/1.1/DTD/svg11.dtd"><!-- Generated by graphviz version 2.40.1 (20161225.0304)
 --><!-- Title: G Pages: 1 --><svg xmlns="http://www.w3.org/2000/svg" xmlns:xlink="http://www.w3.org/1999/xlink" width="806pt" height="260pt" viewBox="0.00 0.00 805.57 260.00">
<g id="graph0" class="graph" transform="scale(1 1) rotate(0) translate(4 256)">
<title>G</title>
<polygon fill="#ffffff" stroke="transparent" points="-4,4 -4,-256 801.5705,-256 801.5705,4 -4,4"/>
<!-- Hub -->
<g id="node1" class="node">
<title>Hub</title>
<ellipse fill="#9cfffe" stroke="#9cfffe" cx="564.7853" cy="-234" rx="27.8306" ry="18"/>
<text text-anchor="middle" x="564.7853" y="-229.8" font-family="Times,serif" font-size="14.00" fill="#000000">Hub</text>
</g>
<!-- Server1 -->
<g id="node2" class="node">
<title>Server1</title>
<ellipse fill="#d3d3d3" stroke="#000000" cx="327.7853" cy="-162" rx="41.1297" ry="18"/>
<text text-anchor="middle" x="327.7853" y="-157.8" font-family="Times,serif" font-size="14.00" fill="#000000">Server1</text>
</g>
<!-- Hub&#45;&gt;Server1 -->
<g id="edge1" class="edge">
<title>Hub-&gt;Server1</title>
<path fill="none" stroke="#000000" d="M539.4221,-226.2947C499.3159,-214.1106 420.7582,-190.2449 371.4538,-175.2664"/>
<polygon fill="#000000" stroke="#000000" points="372.2878,-171.8619 361.7022,-172.3039 370.253,-178.5596 372.2878,-171.8619"/>
</g>
<!-- Server2 -->
<g id="node3" class="node">
<title>Server2</title>
<ellipse fill="#d3d3d3" stroke="#000000" cx="513.7853" cy="-162" rx="41.1297" ry="18"/>
<text text-anchor="middle" x="513.7853" y="-157.8" font-family="Times,serif" font-size="14.00" fill="#000000">Server2</text>
</g>
<!-- Hub&#45;&gt;Server2 -->
<g id="edge2" class="edge">
<title>Hub-&gt;Server2</title>
<path fill="none" stroke="#000000" d="M552.9567,-217.3008C546.7662,-208.5614 539.0497,-197.6674 532.1063,-187.8649"/>
<polygon fill="#000000" stroke="#000000" points="534.8976,-185.7504 526.2613,-179.6132 529.1854,-189.7965 534.8976,-185.7504"/>
</g>
<!-- Server .. -->
<g id="node4" class="node">
<title>Server ..</title>
<ellipse fill="#d3d3d3" stroke="#000000" cx="616.7853" cy="-162" rx="43.458" ry="18"/>
<text text-anchor="middle" x="616.7853" y="-157.8" font-family="Times,serif" font-size="14.00" fill="#000000">Server ..</text>
</g>
<!-- Hub&#45;&gt;Server .. -->
<g id="edge3" class="edge">
<title>Hub-&gt;Server ..</title>
<path fill="none" stroke="#000000" d="M576.5849,-217.6621C582.9815,-208.8052 591.0323,-197.6579 598.246,-187.6697"/>
<polygon fill="#000000" stroke="#000000" points="601.2897,-189.4333 604.3072,-179.2773 595.6149,-185.3349 601.2897,-189.4333"/>
</g>
<!-- Server ... -->
<g id="node5" class="node">
<title>Server ...</title>
<ellipse fill="#d3d3d3" stroke="#000000" cx="723.7853" cy="-162" rx="45.7867" ry="18"/>
<text text-anchor="middle" x="723.7853" y="-157.8" font-family="Times,serif" font-size="14.00" fill="#000000">Server ...</text>
</g>
<!-- Hub&#45;&gt;Server ... -->
<g id="edge4" class="edge">
<title>Hub-&gt;Server ...</title>
<path fill="none" stroke="#000000" d="M587.5661,-223.6842C612.7482,-212.2809 653.7727,-193.7038 684.2297,-179.9119"/>
<polygon fill="#000000" stroke="#000000" points="686.0478,-182.9308 693.7136,-175.6174 683.1602,-176.5542 686.0478,-182.9308"/>
</g>
<!-- Proxy1 -->
<g id="node6" class="node">
<title>Proxy1</title>
<ellipse fill="#bdd6ff" stroke="#bdd6ff" cx="237.7853" cy="-90" rx="38.8671" ry="18"/>
<text text-anchor="middle" x="237.7853" y="-85.8" font-family="Times,serif" font-size="14.00" fill="#000000">Proxy1</text>
</g>
<!-- Server1&#45;&gt;Proxy1 -->
<g id="edge5" class="edge">
<title>Server1-&gt;Proxy1</title>
<path fill="none" stroke="#000000" stroke-dasharray="1,5" d="M307.8114,-146.0209C295.3745,-136.0714 279.1981,-123.1303 265.5266,-112.1931"/>
<polygon fill="#000000" stroke="#000000" points="267.3889,-109.2007 257.3937,-105.6867 263.016,-114.6668 267.3889,-109.2007"/>
</g>
<!-- Proxy2 -->
<g id="node7" class="node">
<title>Proxy2</title>
<ellipse fill="#bdd6ff" stroke="#bdd6ff" cx="534.7853" cy="-90" rx="38.8671" ry="18"/>
<text text-anchor="middle" x="534.7853" y="-85.8" font-family="Times,serif" font-size="14.00" fill="#000000">Proxy2</text>
</g>
<!-- Server2&#45;&gt;Proxy2 -->
<g id="edge6" class="edge">
<title>Server2-&gt;Proxy2</title>
<path fill="none" stroke="#000000" stroke-dasharray="1,5" d="M519.0845,-143.8314C521.39,-135.9266 524.1432,-126.4872 526.6955,-117.7365"/>
<polygon fill="#000000" stroke="#000000" points="530.1205,-118.4934 529.5605,-107.9134 523.4005,-116.5334 530.1205,-118.4934"/>
</g>
<!-- Client_1001 -->
<g id="node8" class="node">
<title>Client_1001</title>
<ellipse fill="#ccd1ff" stroke="#ccd1ff" cx="58.7853" cy="-18" rx="58.5713" ry="18"/>
<text text-anchor="middle" x="58.7853" y="-13.8" font-family="Times,serif" font-size="14.00" fill="#000000">Client_1001</text>
</g>
<!-- Proxy1&#45;&gt;Client_1001 -->
<g id="edge7" class="edge">
<title>Proxy1-&gt;Client_1001</title>
<path fill="none" stroke="#000000" d="M208.2271,-78.1107C179.8485,-66.6958 136.5896,-49.2956 103.9041,-36.1484"/>
<polygon fill="#000000" stroke="#000000" points="105.142,-32.8738 94.5583,-32.3891 102.5297,-39.3681 105.142,-32.8738"/>
</g>
<!-- Client_1002 -->
<g id="node9" class="node">
<title>Client_1002</title>
<ellipse fill="#ccd1ff" stroke="#ccd1ff" cx="194.7853" cy="-18" rx="58.5713" ry="18"/>
<text text-anchor="middle" x="194.7853" y="-13.8" font-family="Times,serif" font-size="14.00" fill="#000000">Client_1002</text>
</g>
<!-- Proxy1&#45;&gt;Client_1002 -->
<g id="edge8" class="edge">
<title>Proxy1-&gt;Client_1002</title>
<path fill="none" stroke="#000000" d="M227.3762,-72.5708C222.3282,-64.1184 216.1569,-53.7851 210.5478,-44.3931"/>
<polygon fill="#000000" stroke="#000000" points="213.5296,-42.5597 205.3972,-35.7689 207.5198,-46.1489 213.5296,-42.5597"/>
</g>
<!-- Client_1999 -->
<g id="node10" class="node">
<title>Client_1999</title>
<ellipse fill="#ccd1ff" stroke="#ccd1ff" cx="330.7853" cy="-18" rx="58.5713" ry="18"/>
<text text-anchor="middle" x="330.7853" y="-13.8" font-family="Times,serif" font-size="14.00" fill="#000000">Client_1999</text>
</g>
<!-- Proxy1&#45;&gt;Client_1999 -->
<g id="edge9" class="edge">
<title>Proxy1-&gt;Client_1999</title>
<path fill="none" stroke="#000000" d="M257.9649,-74.3771C270.5583,-64.6273 286.9921,-51.9044 301.0602,-41.0129"/>
<polygon fill="#000000" stroke="#000000" points="303.2585,-43.7374 309.0231,-34.8481 298.9732,-38.2024 303.2585,-43.7374"/>
</g>
<!-- Client_2001 -->
<g id="node11" class="node">
<title>Client_2001</title>
<ellipse fill="#ccd1ff" stroke="#ccd1ff" cx="466.7853" cy="-18" rx="58.5713" ry="18"/>
<text text-anchor="middle" x="466.7853" y="-13.8" font-family="Times,serif" font-size="14.00" fill="#000000">Client_2001</text>
</g>
<!-- Proxy2&#45;&gt;Client_2001 -->
<g id="edge10" class="edge">
<title>Proxy2-&gt;Client_2001</title>
<path fill="none" stroke="#000000" d="M519.0138,-73.3008C510.5098,-64.2965 499.8457,-53.0052 490.3746,-42.9769"/>
<polygon fill="#000000" stroke="#000000" points="492.8308,-40.4801 483.4199,-35.6132 487.7417,-45.2865 492.8308,-40.4801"/>
</g>
<!-- Client_2002 -->
<g id="node12" class="node">
<title>Client_2002</title>
<ellipse fill="#ccd1ff" stroke="#ccd1ff" cx="602.7853" cy="-18" rx="58.5713" ry="18"/>
<text text-anchor="middle" x="602.7853" y="-13.8" font-family="Times,serif" font-size="14.00" fill="#000000">Client_2002</text>
</g>
<!-- Proxy2&#45;&gt;Client_2002 -->
<g id="edge11" class="edge">
<title>Proxy2-&gt;Client_2002</title>
<path fill="none" stroke="#000000" d="M550.5568,-73.3008C559.0608,-64.2965 569.7248,-53.0052 579.196,-42.9769"/>
<polygon fill="#000000" stroke="#000000" points="581.8289,-45.2865 586.1506,-35.6132 576.7398,-40.4801 581.8289,-45.2865"/>
</g>
<!-- Client_2999 -->
<g id="node13" class="node">
<title>Client_2999</title>
<ellipse fill="#ccd1ff" stroke="#ccd1ff" cx="738.7853" cy="-18" rx="58.5713" ry="18"/>
<text text-anchor="middle" x="738.7853" y="-13.8" font-family="Times,serif" font-size="14.00" fill="#000000">Client_2999</text>
</g>
<!-- Proxy2&#45;&gt;Client_2999 -->
<g id="edge12" class="edge">
<title>Proxy2-&gt;Client_2999</title>
<path fill="none" stroke="#000000" d="M565.7685,-79.0647C598.9579,-67.3508 652.0622,-48.6081 690.6919,-34.9741"/>
<polygon fill="#000000" stroke="#000000" points="691.9152,-38.254 700.1802,-31.6253 689.5854,-31.6531 691.9152,-38.254"/>
</g>
</g>
</svg>