<?xml version="1.0" encoding="UTF-8" standalone="no"?>
<svg
   xmlns:dc="http://purl.org/dc/elements/1.1/"
   xmlns:cc="http://creativecommons.org/ns#"
   xmlns:rdf="http://www.w3.org/1999/02/22-rdf-syntax-ns#"
   xmlns:svg="http://www.w3.org/2000/svg"
   xmlns="http://www.w3.org/2000/svg"
   xmlns:sodipodi="http://sodipodi.sourceforge.net/DTD/sodipodi-0.dtd"
   xmlns:inkscape="http://www.inkscape.org/namespaces/inkscape"
   width="129.306"
   height="77.61"
   viewBox="0 0 129.306 77.61"
   version="1.1"
   id="svg138"
   sodipodi:docname="uyuni-logo-notext.svg"
   inkscape:version="1.0.1 (3bc2e813f5, 2020-09-07)">
  <metadata
     id="metadata144">
    <rdf:RDF>
      <cc:Work
         rdf:about="">
        <dc:format>image/svg+xml</dc:format>
        <dc:type
           rdf:resource="http://purl.org/dc/dcmitype/StillImage" />
        <dc:title></dc:title>
      </cc:Work>
    </rdf:RDF>
  </metadata>
  <defs
     id="defs142" />
  <sodipodi:namedview
     pagecolor="#ffffff"
     bordercolor="#666666"
     borderopacity="1"
     objecttolerance="10"
     gridtolerance="10"
     guidetolerance="10"
     inkscape:pageopacity="0"
     inkscape:pageshadow="2"
     inkscape:window-width="2949"
     inkscape:window-height="1878"
     id="namedview140"
     showgrid="false"
     inkscape:zoom="12.988017"
     inkscape:cx="47.406333"
     inkscape:cy="38.805"
     inkscape:window-x="0"
     inkscape:window-y="40"
     inkscape:window-maximized="0"
     inkscape:current-layer="g136" />
  <g
     transform="translate(-6.39 -32.061)"
     id="g136">
    <path
       d="M79.26,39.551v-7.49H63.111V45.675Z"
       fill="#2ce0e5"
       id="path114" />
    <path
       d="M63.111,32.061H60.15L49.256,50.929l13.855-5.254Z"
       fill="#31f9ff"
       id="path116" />
    <path
       d="M63.111,59.643h0Z"
       fill="#fff"
       id="path118" />
    <path
       d="M85,37.373l-3.067-5.312H79.26v7.49Z"
       fill="#299b98"
       id="path120" />
    <path
       d="M63.111,45.675,49.256,50.929l13.855,8.712Z"
       fill="#2ce0e5"
       id="path122" />
    <path
       d="M63.111,59.641H79.26V39.551l-16.15,6.124Z"
       fill="#25bbbf"
       id="path124" />
    <path
       d="M85,37.373,79.26,39.551V59.643H87.8l5.031-8.714Z"
       fill="#0e7774"
       id="path126" />
    <path
       d="M79.26,69.8h2.676L87.8,59.643H79.26Z"
       fill="#299b98"
       id="path128" />
    <path
       d="M63.113,59.643,79.26,69.8V59.643Z"
       fill="#0e7774"
       id="path130" />
    <path
       d="M63.111,59.643V69.8H79.26L63.113,59.643Z"
       fill="#299b98"
       id="path132" />
    <path
       d="M63.111,59.641,49.256,50.929,60.15,69.8h2.961V59.643Z"
       fill="#25bbbf"
       id="path134" />
  </g>
  <rect
     style="fill:#000000;fill-rule:evenodd;fill-opacity:0"
     id="rect146"
     width="137.60899"
     height="23.717701"
     x="-2.7135234"
     y="60.685699" />
  <rect
     style="fill:#000000;fill-opacity:0;opacity:1"
     id="rect971"
     width="132.80902"
     height="17.427441"
     x="-1.1588957"
     y="60.765984" />
</svg>
