<?xml version="1.0" encoding="UTF-8" standalone="no"?>
<!DOCTYPE svg PUBLIC "-//W3C//DTD SVG 1.1//EN"
 "http://www.w3.org/Graphics/SVG/1.1/DTD/svg11.dtd">
<!-- Generated by graphviz version 2.40.1 (20161225.0304)
 -->
<!-- Title: G Pages: 1 -->
<svg width="1411pt" height="710pt"
 viewBox="0.00 0.00 1411.23 710.00" xmlns="http://www.w3.org/2000/svg" xmlns:xlink="http://www.w3.org/1999/xlink">
<g id="graph0" class="graph" transform="scale(1 1) rotate(0) translate(4 706)">
<title>G</title>
<polygon fill="#ffffff" stroke="transparent" points="-4,4 -4,-706 1407.2314,-706 1407.2314,4 -4,4"/>
<g id="clust1" class="cluster">
<title>cluster input</title>
<polygon fill="none" stroke="#000000" points="149.1701,-640 149.1701,-694 694.1701,-694 694.1701,-640 149.1701,-640"/>
</g>
<!-- Network\nBandwidth -->
<g id="node1" class="node">
<title>Network\nBandwidth</title>
<polygon fill="none" stroke="#000000" points="349.1701,-686 277.1701,-686 273.1701,-682 273.1701,-648 345.1701,-648 349.1701,-652 349.1701,-686"/>
<polyline fill="none" stroke="#000000" points="345.1701,-682 273.1701,-682 "/>
<polyline fill="none" stroke="#000000" points="345.1701,-682 345.1701,-648 "/>
<polyline fill="none" stroke="#000000" points="345.1701,-682 349.1701,-686 "/>
<text text-anchor="middle" x="311.1701" y="-670.8" font-family="Times,serif" font-size="14.00" fill="#000000">Network</text>
<text text-anchor="middle" x="311.1701" y="-655.8" font-family="Times,serif" font-size="14.00" fill="#000000">Bandwidth</text>
</g>
<!-- Proxy count -->
<g id="node13" class="node">
<title>Proxy count</title>
<polygon fill="none" stroke="#000000" points="98.6701,-612 19.6701,-612 15.6701,-608 15.6701,-576 94.6701,-576 98.6701,-580 98.6701,-612"/>
<polyline fill="none" stroke="#000000" points="94.6701,-608 15.6701,-608 "/>
<polyline fill="none" stroke="#000000" points="94.6701,-608 94.6701,-576 "/>
<polyline fill="none" stroke="#000000" points="94.6701,-608 98.6701,-612 "/>
<text text-anchor="middle" x="57.1701" y="-590.3" font-family="Times,serif" font-size="14.00" fill="#000000">Proxy count</text>
</g>
<!-- Network\nBandwidth&#45;&gt;Proxy count -->
<g id="edge16" class="edge">
<title>Network\nBandwidth&#45;&gt;Proxy count</title>
<path fill="none" stroke="#000000" stroke-dasharray="5,2" d="M281.3084,-647.8635C275.7665,-644.8909 269.9109,-642.1111 264.1701,-640 200.1092,-616.4422 179.3508,-628.6996 113.1701,-612 111.7158,-611.633 110.244,-611.2489 108.7615,-610.8508"/>
<polygon fill="#000000" stroke="#000000" points="109.4703,-607.4139 98.8949,-608.0545 107.5616,-614.1487 109.4703,-607.4139"/>
</g>
<!-- Client count -->
<g id="node2" class="node">
<title>Client count</title>
<polygon fill="none" stroke="#000000" points="685.6701,-685 606.6701,-685 602.6701,-681 602.6701,-649 681.6701,-649 685.6701,-653 685.6701,-685"/>
<polyline fill="none" stroke="#000000" points="681.6701,-681 602.6701,-681 "/>
<polyline fill="none" stroke="#000000" points="681.6701,-681 681.6701,-649 "/>
<polyline fill="none" stroke="#000000" points="681.6701,-681 685.6701,-685 "/>
<text text-anchor="middle" x="644.1701" y="-663.3" font-family="Times,serif" font-size="14.00" fill="#000000">Client count</text>
</g>
<!-- java.message_queue_thread_pool_size -->
<g id="node7" class="node">
<title>java.message_queue_thread_pool_size</title>
<polygon fill="none" stroke="#a020f0" points="823.6701,-468 596.6701,-468 596.6701,-432 823.6701,-432 823.6701,-468"/>
<text text-anchor="middle" x="710.1701" y="-446.3" font-family="Times,serif" font-size="14.00" fill="#000000">java.message_queue_thread_pool_size</text>
</g>
<!-- Client count&#45;&gt;java.message_queue_thread_pool_size -->
<g id="edge2" class="edge">
<title>Client count&#45;&gt;java.message_queue_thread_pool_size</title>
<path fill="none" stroke="#000000" stroke-dasharray="5,2" d="M611.5312,-648.9456C605.7828,-645.8892 599.8285,-642.8011 594.1701,-640 567.0732,-626.5862 548.57,-637.4011 532.1701,-612 523.4916,-598.5582 524.8185,-590.211 532.1701,-576 557.643,-526.7596 612.21,-492.6261 654.2552,-472.4273"/>
<polygon fill="#000000" stroke="#000000" points="655.981,-475.4843 663.5619,-468.083 653.0201,-469.1413 655.981,-475.4843"/>
</g>
<!-- java.salt_batch_size -->
<g id="node8" class="node">
<title>java.salt_batch_size</title>
<polygon fill="none" stroke="#a020f0" points="1005.6701,-468 880.6701,-468 880.6701,-432 1005.6701,-432 1005.6701,-468"/>
<text text-anchor="middle" x="943.1701" y="-446.3" font-family="Times,serif" font-size="14.00" fill="#000000">java.salt_batch_size</text>
</g>
<!-- Client count&#45;&gt;java.salt_batch_size -->
<g id="edge3" class="edge">
<title>Client count&#45;&gt;java.salt_batch_size</title>
<path fill="none" stroke="#000000" stroke-dasharray="5,2" d="M685.812,-664.1113C780.9506,-657.0892 1007.7958,-637.7883 1030.1701,-612 1067.0853,-569.452 1011.7812,-508.5952 973.8457,-474.8817"/>
<polygon fill="#000000" stroke="#000000" points="975.8993,-472.0296 966.0537,-468.116 971.3098,-477.3152 975.8993,-472.0296"/>
</g>
<!-- java.salt_presence_ping_gather_job_timeout -->
<g id="node9" class="node">
<title>java.salt_presence_ping_gather_job_timeout</title>
<polygon fill="none" stroke="#a020f0" points="1164.1701,-396 904.1701,-396 904.1701,-360 1164.1701,-360 1164.1701,-396"/>
<text text-anchor="middle" x="1034.1701" y="-374.3" font-family="Times,serif" font-size="14.00" fill="#000000">java.salt_presence_ping_gather_job_timeout</text>
</g>
<!-- Client count&#45;&gt;java.salt_presence_ping_gather_job_timeout -->
<g id="edge4" class="edge">
<title>Client count&#45;&gt;java.salt_presence_ping_gather_job_timeout</title>
<path fill="none" stroke="#000000" stroke-dasharray="5,2" d="M685.7707,-653.3155C713.7722,-643.4127 751.1105,-628.8455 782.1701,-612 806.5588,-598.7725 809.0127,-589.6454 833.1701,-576 915.0667,-529.7403 963.8273,-546.8095 1015.1701,-468 1027.1765,-449.5706 1031.7633,-424.9198 1033.4389,-406.0769"/>
<polygon fill="#000000" stroke="#000000" points="1036.9367,-406.2251 1034.1112,-396.014 1029.9523,-405.7585 1036.9367,-406.2251"/>
</g>
<!-- java.salt_presence_ping_timeout -->
<g id="node10" class="node">
<title>java.salt_presence_ping_timeout</title>
<polygon fill="none" stroke="#a020f0" points="1253.6701,-324 1058.6701,-324 1058.6701,-288 1253.6701,-288 1253.6701,-324"/>
<text text-anchor="middle" x="1156.1701" y="-302.3" font-family="Times,serif" font-size="14.00" fill="#000000">java.salt_presence_ping_timeout</text>
</g>
<!-- Client count&#45;&gt;java.salt_presence_ping_timeout -->
<g id="edge5" class="edge">
<title>Client count&#45;&gt;java.salt_presence_ping_timeout</title>
<path fill="none" stroke="#000000" stroke-dasharray="5,2" d="M686.097,-666.5874C829.8249,-664.7865 1296.503,-655.6022 1346.1701,-612 1376.8926,-585.029 1365.1701,-562.8816 1365.1701,-522 1365.1701,-522 1365.1701,-522 1365.1701,-450 1365.1701,-385.7208 1297.3042,-347.94 1238.9178,-327.3305"/>
<polygon fill="#000000" stroke="#000000" points="1239.8626,-323.955 1229.2681,-324.0465 1237.6073,-330.5817 1239.8626,-323.955"/>
</g>
<!-- org.quartz.threadPool.threadCount -->
<g id="node11" class="node">
<title>org.quartz.threadPool.threadCount</title>
<polygon fill="none" stroke="#a020f0" points="578.1701,-468 372.1701,-468 372.1701,-432 578.1701,-432 578.1701,-468"/>
<text text-anchor="middle" x="475.1701" y="-446.3" font-family="Times,serif" font-size="14.00" fill="#000000">org.quartz.threadPool.threadCount</text>
</g>
<!-- Client count&#45;&gt;org.quartz.threadPool.threadCount -->
<g id="edge6" class="edge">
<title>Client count&#45;&gt;org.quartz.threadPool.threadCount</title>
<path fill="none" stroke="#000000" stroke-dasharray="5,2" d="M612.2037,-648.9507C606.2757,-645.8297 600.0866,-642.7184 594.1701,-640 562.5943,-625.4921 544.6166,-637.647 521.1701,-612 487.0237,-574.6488 478.0232,-513.745 475.7749,-478.2148"/>
<polygon fill="#000000" stroke="#000000" points="479.2623,-477.8722 475.2735,-468.0569 472.2708,-478.2173 479.2623,-477.8722"/>
</g>
<!-- org.quartz.scheduler.idleWaitTime -->
<g id="node12" class="node">
<title>org.quartz.scheduler.idleWaitTime</title>
<polygon fill="none" stroke="#a020f0" points="747.1701,-612 541.1701,-612 541.1701,-576 747.1701,-576 747.1701,-612"/>
<text text-anchor="middle" x="644.1701" y="-590.3" font-family="Times,serif" font-size="14.00" fill="#000000">org.quartz.scheduler.idleWaitTime</text>
</g>
<!-- Client count&#45;&gt;org.quartz.scheduler.idleWaitTime -->
<g id="edge7" class="edge">
<title>Client count&#45;&gt;org.quartz.scheduler.idleWaitTime</title>
<path fill="none" stroke="#000000" stroke-dasharray="5,2" d="M644.1701,-648.9551C644.1701,-640.8828 644.1701,-631.1764 644.1701,-622.1817"/>
<polygon fill="#000000" stroke="#000000" points="647.6702,-622.0903 644.1701,-612.0904 640.6702,-622.0904 647.6702,-622.0903"/>
</g>
<!-- Client count&#45;&gt;Proxy count -->
<g id="edge8" class="edge">
<title>Client count&#45;&gt;Proxy count</title>
<path fill="none" stroke="#000000" stroke-dasharray="5,2" d="M615.7308,-648.9245C608.9064,-645.3659 601.4731,-642.0903 594.1701,-640 402.3725,-585.1019 343.9607,-638.0572 146.1701,-612 134.0819,-610.4075 121.1741,-608.1342 109.0454,-605.7369"/>
<polygon fill="#000000" stroke="#000000" points="109.573,-602.2726 99.0757,-603.7062 108.1759,-609.1318 109.573,-602.2726"/>
</g>
<!-- rhn&#45;search.java.maxmemory -->
<g id="node14" class="node">
<title>rhn&#45;search.java.maxmemory</title>
<polygon fill="none" stroke="#a020f0" points="887.6701,-540 712.6701,-540 712.6701,-504 887.6701,-504 887.6701,-540"/>
<text text-anchor="middle" x="800.1701" y="-518.3" font-family="Times,serif" font-size="14.00" fill="#000000">rhn&#45;search.java.maxmemory</text>
</g>
<!-- Client count&#45;&gt;rhn&#45;search.java.maxmemory -->
<g id="edge9" class="edge">
<title>Client count&#45;&gt;rhn&#45;search.java.maxmemory</title>
<path fill="none" stroke="#000000" stroke-dasharray="5,2" d="M685.749,-654.114C708.7993,-645.2664 736.6572,-631.5472 756.1701,-612 773.4349,-594.7048 785.0026,-569.2827 791.9261,-549.8649"/>
<polygon fill="#000000" stroke="#000000" points="795.2615,-550.9268 795.1289,-540.3328 788.6261,-548.6972 795.2615,-550.9268"/>
</g>
<!-- worker_threads -->
<g id="node15" class="node">
<title>worker_threads</title>
<polygon fill="none" stroke="#0000ff" points="657.6701,-324 556.6701,-324 556.6701,-288 657.6701,-288 657.6701,-324"/>
<text text-anchor="middle" x="607.1701" y="-302.3" font-family="Times,serif" font-size="14.00" fill="#000000">worker_threads</text>
</g>
<!-- Client count&#45;&gt;worker_threads -->
<g id="edge10" class="edge">
<title>Client count&#45;&gt;worker_threads</title>
<path fill="none" stroke="#000000" stroke-dasharray="5,2" d="M613.2117,-648.9099C607.0226,-645.6877 600.4812,-642.5506 594.1701,-640 551.3787,-622.7063 536.438,-630.5364 494.1701,-612 466.2984,-599.777 275.9905,-494.5818 261.1701,-468 192.8327,-345.4307 406.1718,-358.6077 542.1701,-324 543.624,-323.63 545.0952,-323.252 546.5784,-322.8676"/>
<polygon fill="#000000" stroke="#000000" points="547.7048,-326.1903 556.4827,-320.2575 545.9209,-319.4214 547.7048,-326.1903"/>
</g>
<!-- pub_hwm -->
<g id="node16" class="node">
<title>pub_hwm</title>
<polygon fill="none" stroke="#0000ff" points="912.6701,-612 841.6701,-612 841.6701,-576 912.6701,-576 912.6701,-612"/>
<text text-anchor="middle" x="877.1701" y="-590.3" font-family="Times,serif" font-size="14.00" fill="#000000">pub_hwm</text>
</g>
<!-- Client count&#45;&gt;pub_hwm -->
<g id="edge11" class="edge">
<title>Client count&#45;&gt;pub_hwm</title>
<path fill="none" stroke="#000000" stroke-dasharray="5,2" d="M685.7962,-655.1791C723.0175,-644.4455 778.9696,-627.9066 827.1701,-612 828.6212,-611.5211 830.0937,-611.0289 831.579,-610.527"/>
<polygon fill="#000000" stroke="#000000" points="833.1595,-613.6842 841.4713,-607.1142 830.8766,-607.0669 833.1595,-613.6842"/>
</g>
<!-- zmq_backlog -->
<g id="node17" class="node">
<title>zmq_backlog</title>
<polygon fill="none" stroke="#0000ff" points="1021.1701,-612 931.1701,-612 931.1701,-576 1021.1701,-576 1021.1701,-612"/>
<text text-anchor="middle" x="976.1701" y="-590.3" font-family="Times,serif" font-size="14.00" fill="#000000">zmq_backlog</text>
</g>
<!-- Client count&#45;&gt;zmq_backlog -->
<g id="edge12" class="edge">
<title>Client count&#45;&gt;zmq_backlog</title>
<path fill="none" stroke="#000000" stroke-dasharray="5,2" d="M685.992,-660.4228C738.7976,-651.7459 832.5237,-635.1096 921.2459,-612.0863"/>
<polygon fill="#000000" stroke="#000000" points="922.1397,-615.4703 930.9222,-609.5442 920.361,-608.7001 922.1397,-615.4703"/>
</g>
<!-- MinionActionExecutor.parallel_threads -->
<g id="node18" class="node">
<title>MinionActionExecutor.parallel_threads</title>
<polygon fill="none" stroke="#a020f0" points="1272.1701,-252 1040.1701,-252 1040.1701,-216 1272.1701,-216 1272.1701,-252"/>
<text text-anchor="middle" x="1156.1701" y="-230.3" font-family="Times,serif" font-size="14.00" fill="#000000">MinionActionExecutor.parallel_threads</text>
</g>
<!-- Client count&#45;&gt;MinionActionExecutor.parallel_threads -->
<g id="edge13" class="edge">
<title>Client count&#45;&gt;MinionActionExecutor.parallel_threads</title>
<path fill="none" stroke="#000000" stroke-dasharray="5,2" d="M685.7765,-666.4394C831.859,-664.1212 1315.4755,-653.3622 1370.1701,-612 1404.1513,-586.302 1403.1701,-564.6041 1403.1701,-522 1403.1701,-522 1403.1701,-522 1403.1701,-378 1403.1701,-310.6026 1333.6857,-274.1899 1268.4245,-254.8537"/>
<polygon fill="#000000" stroke="#000000" points="1268.9934,-251.3768 1258.4174,-252.0089 1267.0793,-258.11 1268.9934,-251.3768"/>
</g>
<!-- connectionTimeout -->
<g id="node19" class="node">
<title>connectionTimeout</title>
<polygon fill="none" stroke="#a52a2a" points="1199.1701,-612 1077.1701,-612 1077.1701,-576 1199.1701,-576 1199.1701,-612"/>
<text text-anchor="middle" x="1138.1701" y="-590.3" font-family="Times,serif" font-size="14.00" fill="#000000">connectionTimeout</text>
</g>
<!-- Client count&#45;&gt;connectionTimeout -->
<g id="edge14" class="edge">
<title>Client count&#45;&gt;connectionTimeout</title>
<path fill="none" stroke="#000000" stroke-dasharray="5,2" d="M685.7294,-663.007C761.2583,-655.4261 925.9207,-637.4053 1063.1701,-612 1064.4292,-611.7669 1065.6988,-611.5262 1066.9765,-611.2786"/>
<polygon fill="#000000" stroke="#000000" points="1067.7858,-614.6858 1076.8872,-609.2623 1066.3902,-607.8263 1067.7858,-614.6858"/>
</g>
<!-- keepAliveTimeout -->
<g id="node20" class="node">
<title>keepAliveTimeout</title>
<polygon fill="none" stroke="#a52a2a" points="1336.6701,-612 1217.6701,-612 1217.6701,-576 1336.6701,-576 1336.6701,-612"/>
<text text-anchor="middle" x="1277.1701" y="-590.3" font-family="Times,serif" font-size="14.00" fill="#000000">keepAliveTimeout</text>
</g>
<!-- Client count&#45;&gt;keepAliveTimeout -->
<g id="edge15" class="edge">
<title>Client count&#45;&gt;keepAliveTimeout</title>
<path fill="none" stroke="#000000" stroke-dasharray="5,2" d="M685.8706,-665.19C778.2103,-660.6989 1006.9349,-646.9146 1207.3344,-611.9807"/>
<polygon fill="#000000" stroke="#000000" points="1208.2195,-615.3787 1217.4587,-610.1934 1207.0025,-608.4853 1208.2195,-615.3787"/>
</g>
<!-- Channel count -->
<g id="node3" class="node">
<title>Channel count</title>
<ellipse fill="none" stroke="#000000" cx="523.1701" cy="-667" rx="61.99" ry="18"/>
<text text-anchor="middle" x="523.1701" y="-663.3" font-family="Times,serif" font-size="14.00" fill="#000000">Channel count</text>
</g>
<!-- java.taskomatic_channel_repodata_workers -->
<g id="node6" class="node">
<title>java.taskomatic_channel_repodata_workers</title>
<polygon fill="none" stroke="#a020f0" points="409.1701,-612 155.1701,-612 155.1701,-576 409.1701,-576 409.1701,-612"/>
<text text-anchor="middle" x="282.1701" y="-590.3" font-family="Times,serif" font-size="14.00" fill="#000000">java.taskomatic_channel_repodata_workers</text>
</g>
<!-- Channel count&#45;&gt;java.taskomatic_channel_repodata_workers -->
<g id="edge1" class="edge">
<title>Channel count&#45;&gt;java.taskomatic_channel_repodata_workers</title>
<path fill="none" stroke="#000000" stroke-dasharray="5,2" d="M486.5662,-652.2866C475.586,-648.0887 463.4592,-643.6639 452.1701,-640 423.9441,-630.8392 392.6852,-622.0127 364.7503,-614.5838"/>
<polygon fill="#000000" stroke="#000000" points="365.5804,-611.1831 355.0184,-612.0161 363.7946,-617.9515 365.5804,-611.1831"/>
</g>
<!-- OS mix -->
<g id="node4" class="node">
<title>OS mix</title>
<ellipse fill="none" stroke="#000000" cx="405.1701" cy="-667" rx="38.1938" ry="18"/>
<text text-anchor="middle" x="405.1701" y="-663.3" font-family="Times,serif" font-size="14.00" fill="#000000">OS mix</text>
</g>
<!-- OS mix&#45;&gt;Proxy count -->
<g id="edge17" class="edge">
<title>OS mix&#45;&gt;Proxy count</title>
<path fill="none" stroke="#000000" stroke-dasharray="5,2" d="M383.0983,-651.8492C375.507,-647.3235 366.7521,-642.8213 358.1701,-640 254.0541,-605.7726 220.305,-635.1034 113.1701,-612 111.7039,-611.6838 110.2216,-611.3447 108.7299,-610.9862"/>
<polygon fill="#000000" stroke="#000000" points="109.3802,-607.5383 98.8189,-608.3795 107.5997,-614.3081 109.3802,-607.5383"/>
</g>
<!-- taskomatic.java.maxmemory -->
<g id="node21" class="node">
<title>taskomatic.java.maxmemory</title>
<polygon fill="none" stroke="#a020f0" points="292.6701,-540 115.6701,-540 115.6701,-504 292.6701,-504 292.6701,-540"/>
<text text-anchor="middle" x="204.1701" y="-518.3" font-family="Times,serif" font-size="14.00" fill="#000000">taskomatic.java.maxmemory</text>
</g>
<!-- OS mix&#45;&gt;taskomatic.java.maxmemory -->
<g id="edge18" class="edge">
<title>OS mix&#45;&gt;taskomatic.java.maxmemory</title>
<path fill="none" stroke="#000000" stroke-dasharray="5,2" d="M383.0689,-651.9371C375.4757,-647.4173 366.7271,-642.8964 358.1701,-640 313.1584,-624.7645 177.4949,-647.7341 146.1701,-612 128.4908,-591.8321 149.1628,-565.8095 170.5724,-546.9378"/>
<polygon fill="#000000" stroke="#000000" points="173.0247,-549.4486 178.4239,-540.3327 168.5184,-544.092 173.0247,-549.4486"/>
</g>
<!-- User count -->
<g id="node5" class="node">
<title>User count</title>
<ellipse fill="none" stroke="#000000" cx="206.1701" cy="-667" rx="49.2915" ry="18"/>
<text text-anchor="middle" x="206.1701" y="-663.3" font-family="Times,serif" font-size="14.00" fill="#000000">User count</text>
</g>
<!-- MaxClients -->
<g id="node22" class="node">
<title>MaxClients</title>
<polygon fill="none" stroke="#ff0000" points="97.1701,-540 17.1701,-540 17.1701,-504 97.1701,-504 97.1701,-540"/>
<text text-anchor="middle" x="57.1701" y="-518.3" font-family="Times,serif" font-size="14.00" fill="#000000">MaxClients</text>
</g>
<!-- User count&#45;&gt;MaxClients -->
<g id="edge20" class="edge">
<title>User count&#45;&gt;MaxClients</title>
<path fill="none" stroke="#000000" stroke-dasharray="5,2" d="M159.4351,-660.7194C106.3495,-652.5151 24.6696,-636.2736 6.1701,-612 -9.3987,-591.5718 8.3445,-565.8796 27.0388,-547.1806"/>
<polygon fill="#000000" stroke="#000000" points="29.6186,-549.5574 34.4581,-540.1324 24.7974,-544.4823 29.6186,-549.5574"/>
</g>
<!-- java.taskomatic_channel_repodata_workers&#45;&gt;taskomatic.java.maxmemory -->
<g id="edge25" class="edge">
<title>java.taskomatic_channel_repodata_workers&#45;&gt;taskomatic.java.maxmemory</title>
<path fill="none" stroke="#000000" d="M262.4874,-575.8314C253.065,-567.1337 241.63,-556.5783 231.3905,-547.1265"/>
<polygon fill="#000000" stroke="#000000" points="233.5685,-544.3738 223.8465,-540.1628 228.8205,-549.5175 233.5685,-544.3738"/>
</g>
<!-- hibernate.c3p0.max_size -->
<g id="node23" class="node">
<title>hibernate.c3p0.max_size</title>
<polygon fill="none" stroke="#a020f0" points="548.6701,-396 395.6701,-396 395.6701,-360 548.6701,-360 548.6701,-396"/>
<text text-anchor="middle" x="472.1701" y="-374.3" font-family="Times,serif" font-size="14.00" fill="#000000">hibernate.c3p0.max_size</text>
</g>
<!-- java.message_queue_thread_pool_size&#45;&gt;hibernate.c3p0.max_size -->
<g id="edge22" class="edge">
<title>java.message_queue_thread_pool_size&#45;&gt;hibernate.c3p0.max_size</title>
<path fill="none" stroke="#000000" d="M650.4198,-431.9243C617.4595,-421.9531 576.3573,-409.5188 541.9306,-399.104"/>
<polygon fill="#000000" stroke="#000000" points="542.53,-395.6288 531.9449,-396.0831 540.503,-402.3289 542.53,-395.6288"/>
</g>
<!-- thread_pool -->
<g id="node25" class="node">
<title>thread_pool</title>
<polygon fill="none" stroke="#0000ff" points="647.6701,-396 566.6701,-396 566.6701,-360 647.6701,-360 647.6701,-396"/>
<text text-anchor="middle" x="607.1701" y="-374.3" font-family="Times,serif" font-size="14.00" fill="#000000">thread_pool</text>
</g>
<!-- java.message_queue_thread_pool_size&#45;&gt;thread_pool -->
<g id="edge23" class="edge">
<title>java.message_queue_thread_pool_size&#45;&gt;thread_pool</title>
<path fill="none" stroke="#000000" d="M684.1788,-431.8314C671.2485,-422.7927 655.4479,-411.7476 641.5318,-402.0198"/>
<polygon fill="#000000" stroke="#000000" points="643.3544,-399.0235 633.153,-396.1628 639.3438,-404.7608 643.3544,-399.0235"/>
</g>
<!-- Tomcat &#45;Xmx -->
<g id="node26" class="node">
<title>Tomcat &#45;Xmx</title>
<polygon fill="none" stroke="#a52a2a" points="760.1701,-396 666.1701,-396 666.1701,-360 760.1701,-360 760.1701,-396"/>
<text text-anchor="middle" x="713.1701" y="-374.3" font-family="Times,serif" font-size="14.00" fill="#000000">Tomcat &#45;Xmx</text>
</g>
<!-- java.message_queue_thread_pool_size&#45;&gt;Tomcat &#45;Xmx -->
<g id="edge24" class="edge">
<title>java.message_queue_thread_pool_size&#45;&gt;Tomcat &#45;Xmx</title>
<path fill="none" stroke="#000000" d="M710.9271,-431.8314C711.248,-424.131 711.6295,-414.9743 711.9861,-406.4166"/>
<polygon fill="#000000" stroke="#000000" points="715.4834,-406.5503 712.4029,-396.4133 708.4895,-406.2589 715.4834,-406.5503"/>
</g>
<!-- java.salt_batch_size&#45;&gt;java.salt_presence_ping_gather_job_timeout -->
<!-- java.salt_presence_ping_gather_job_timeout&#45;&gt;java.salt_presence_ping_timeout -->
<!-- java.salt_presence_ping_timeout&#45;&gt;MinionActionExecutor.parallel_threads -->
<!-- org.quartz.threadPool.threadCount&#45;&gt;hibernate.c3p0.max_size -->
<g id="edge32" class="edge">
<title>org.quartz.threadPool.threadCount&#45;&gt;hibernate.c3p0.max_size</title>
<path fill="none" stroke="#000000" d="M474.4131,-431.8314C474.0922,-424.131 473.7107,-414.9743 473.3541,-406.4166"/>
<polygon fill="#000000" stroke="#000000" points="476.8507,-406.2589 472.9373,-396.4133 469.8567,-406.5503 476.8507,-406.2589"/>
</g>
<!-- org.quartz.threadPool.threadCount&#45;&gt;thread_pool -->
<g id="edge33" class="edge">
<title>org.quartz.threadPool.threadCount&#45;&gt;thread_pool</title>
<path fill="none" stroke="#000000" d="M508.4793,-431.8314C525.5974,-422.4942 546.6407,-411.016 564.8922,-401.0606"/>
<polygon fill="#000000" stroke="#000000" points="566.7686,-404.024 573.8716,-396.1628 563.4166,-397.8788 566.7686,-404.024"/>
</g>
<!-- org.quartz.scheduler.idleWaitTime&#45;&gt;rhn&#45;search.java.maxmemory -->
<!-- Proxy count&#45;&gt;MaxClients -->
<g id="edge19" class="edge">
<title>Proxy count&#45;&gt;MaxClients</title>
<path fill="none" stroke="#000000" stroke-dasharray="5,2" d="M57.1701,-575.8314C57.1701,-568.131 57.1701,-558.9743 57.1701,-550.4166"/>
<polygon fill="#000000" stroke="#000000" points="60.6702,-550.4132 57.1701,-540.4133 53.6702,-550.4133 60.6702,-550.4132"/>
</g>
<!-- rhn&#45;search.java.maxmemory&#45;&gt;java.salt_batch_size -->
<!-- rhn&#45;search.java.maxmemory&#45;&gt;rhn&#45;search.java.maxmemory -->
<!-- memory usage -->
<g id="node27" class="node">
<title>memory usage</title>
<ellipse fill="none" stroke="#000000" cx="647.1701" cy="-234" rx="63.8893" ry="18"/>
<text text-anchor="middle" x="647.1701" y="-230.3" font-family="Times,serif" font-size="14.00" fill="#000000">memory usage</text>
</g>
<!-- rhn&#45;search.java.maxmemory&#45;&gt;memory usage -->
<g id="edge37" class="edge">
<title>rhn&#45;search.java.maxmemory&#45;&gt;memory usage</title>
<path fill="none" stroke="#000000" d="M814.8453,-503.7088C821.8747,-493.772 829.5396,-480.9031 833.1701,-468 837.5037,-452.598 838.8562,-446.9555 833.1701,-432 803.4886,-353.9317 725.8679,-289.1248 680.8345,-256.5889"/>
<polygon fill="#000000" stroke="#000000" points="682.7339,-253.645 672.555,-250.7054 678.6791,-259.351 682.7339,-253.645"/>
</g>
<!-- worker_threads&#45;&gt;memory usage -->
<g id="edge42" class="edge">
<title>worker_threads&#45;&gt;memory usage</title>
<path fill="none" stroke="#000000" d="M617.2638,-287.8314C621.7985,-279.6688 627.2423,-269.87 632.2352,-260.8827"/>
<polygon fill="#000000" stroke="#000000" points="635.4213,-262.3548 637.2182,-251.9134 629.3022,-258.9552 635.4213,-262.3548"/>
</g>
<!-- work_mem -->
<g id="node34" class="node">
<title>work_mem</title>
<polygon fill="none" stroke="#c0c0c0" points="755.1701,-180 675.1701,-180 675.1701,-144 755.1701,-144 755.1701,-180"/>
<text text-anchor="middle" x="715.1701" y="-158.3" font-family="Times,serif" font-size="14.00" fill="#000000">work_mem</text>
</g>
<!-- MinionActionExecutor.parallel_threads&#45;&gt;work_mem -->
<!-- taskomatic.java.maxmemory&#45;&gt;memory usage -->
<g id="edge38" class="edge">
<title>taskomatic.java.maxmemory&#45;&gt;memory usage</title>
<path fill="none" stroke="#000000" d="M201.4536,-503.9328C197.6158,-471.3891 194.432,-402.3717 228.1701,-360 272.3459,-304.5194 474.9966,-262.9388 581.4361,-244.4979"/>
<polygon fill="#000000" stroke="#000000" points="582.1626,-247.9245 591.4278,-242.7859 580.9803,-241.0251 582.1626,-247.9245"/>
</g>
<!-- maxThreads -->
<g id="node28" class="node">
<title>maxThreads</title>
<polygon fill="none" stroke="#a52a2a" points="354.1701,-468 270.1701,-468 270.1701,-432 354.1701,-432 354.1701,-468"/>
<text text-anchor="middle" x="312.1701" y="-446.3" font-family="Times,serif" font-size="14.00" fill="#000000">maxThreads</text>
</g>
<!-- MaxClients&#45;&gt;maxThreads -->
<g id="edge27" class="edge">
<title>MaxClients&#45;&gt;maxThreads</title>
<path fill="none" stroke="#000000" d="M97.1823,-507.2453C100.5487,-506.1107 103.9105,-505.0139 107.1701,-504 158.6296,-487.9937 218.2894,-472.6313 259.9333,-462.4128"/>
<polygon fill="#000000" stroke="#000000" points="260.9667,-465.7634 269.852,-459.9926 259.3074,-458.9629 260.9667,-465.7634"/>
</g>
<!-- ServerLimit -->
<g id="node29" class="node">
<title>ServerLimit</title>
<polygon fill="none" stroke="#ff0000" points="98.6701,-468 15.6701,-468 15.6701,-432 98.6701,-432 98.6701,-468"/>
<text text-anchor="middle" x="57.1701" y="-446.3" font-family="Times,serif" font-size="14.00" fill="#000000">ServerLimit</text>
</g>
<!-- MaxClients&#45;&gt;ServerLimit -->
<g id="edge28" class="edge">
<title>MaxClients&#45;&gt;ServerLimit</title>
<path fill="none" stroke="#000000" d="M57.1701,-503.8314C57.1701,-496.131 57.1701,-486.9743 57.1701,-478.4166"/>
<polygon fill="#000000" stroke="#000000" points="60.6702,-478.4132 57.1701,-468.4133 53.6702,-478.4133 60.6702,-478.4132"/>
</g>
<!-- max_connections -->
<g id="node24" class="node">
<title>max_connections</title>
<polygon fill="none" stroke="#c0c0c0" points="533.1701,-324 421.1701,-324 421.1701,-288 533.1701,-288 533.1701,-324"/>
<text text-anchor="middle" x="477.1701" y="-302.3" font-family="Times,serif" font-size="14.00" fill="#000000">max_connections</text>
</g>
<!-- hibernate.c3p0.max_size&#45;&gt;max_connections -->
<g id="edge21" class="edge">
<title>hibernate.c3p0.max_size&#45;&gt;max_connections</title>
<path fill="none" stroke="#000000" d="M473.4318,-359.8314C473.9665,-352.131 474.6024,-342.9743 475.1967,-334.4166"/>
<polygon fill="#000000" stroke="#000000" points="478.6901,-334.6317 475.8914,-324.4133 471.7069,-334.1467 478.6901,-334.6317"/>
</g>
<!-- max_connections&#45;&gt;memory usage -->
<g id="edge26" class="edge">
<title>max_connections&#45;&gt;memory usage</title>
<path fill="none" stroke="#000000" d="M520.0683,-287.8314C545.1873,-277.1927 576.8692,-263.7745 602.3178,-252.9962"/>
<polygon fill="#000000" stroke="#000000" points="603.8963,-256.1288 611.7394,-249.0059 601.1663,-249.683 603.8963,-256.1288"/>
</g>
<!-- thread_pool&#45;&gt;worker_threads -->
<g id="edge39" class="edge">
<title>thread_pool&#45;&gt;worker_threads</title>
<path fill="none" stroke="#000000" d="M607.1701,-359.8314C607.1701,-352.131 607.1701,-342.9743 607.1701,-334.4166"/>
<polygon fill="#000000" stroke="#000000" points="610.6702,-334.4132 607.1701,-324.4133 603.6702,-334.4133 610.6702,-334.4132"/>
</g>
<!-- Tomcat &#45;Xmx&#45;&gt;memory usage -->
<g id="edge40" class="edge">
<title>Tomcat &#45;Xmx&#45;&gt;memory usage</title>
<path fill="none" stroke="#000000" d="M704.8111,-359.7623C693.4051,-334.8764 672.8744,-290.0822 659.6443,-261.2165"/>
<polygon fill="#000000" stroke="#000000" points="662.8095,-259.722 655.4612,-252.0896 656.446,-262.6386 662.8095,-259.722"/>
</g>
<!-- effective_cache_size -->
<g id="node30" class="node">
<title>effective_cache_size</title>
<polygon fill="none" stroke="#c0c0c0" points="847.6701,-36 718.6701,-36 718.6701,0 847.6701,0 847.6701,-36"/>
<text text-anchor="middle" x="783.1701" y="-14.3" font-family="Times,serif" font-size="14.00" fill="#000000">effective_cache_size</text>
</g>
<!-- memory usage&#45;&gt;effective_cache_size -->
<g id="edge30" class="edge">
<title>memory usage&#45;&gt;effective_cache_size</title>
<path fill="none" stroke="#000000" d="M697.8008,-222.8709C721.7135,-214.954 748.4067,-201.7306 764.1701,-180 792.8007,-140.5311 791.5126,-80.8675 787.6004,-46.0311"/>
<polygon fill="#000000" stroke="#000000" points="791.0668,-45.5448 786.3322,-36.0667 784.1228,-46.4286 791.0668,-45.5448"/>
</g>
<!-- RAM -->
<g id="node31" class="node">
<title>RAM</title>
<polygon fill="none" stroke="#000000" points="679.1701,-108 629.1701,-108 625.1701,-104 625.1701,-72 675.1701,-72 679.1701,-76 679.1701,-108"/>
<polyline fill="none" stroke="#000000" points="675.1701,-104 625.1701,-104 "/>
<polyline fill="none" stroke="#000000" points="675.1701,-104 675.1701,-72 "/>
<polyline fill="none" stroke="#000000" points="675.1701,-104 679.1701,-108 "/>
<text text-anchor="middle" x="652.1701" y="-86.3" font-family="Times,serif" font-size="14.00" fill="#000000">RAM</text>
</g>
<!-- memory usage&#45;&gt;RAM -->
<g id="edge31" class="edge">
<title>memory usage&#45;&gt;RAM</title>
<path fill="none" stroke="#000000" d="M647.8033,-215.7623C648.6562,-191.201 650.1823,-147.2474 651.1856,-118.3541"/>
<polygon fill="#000000" stroke="#000000" points="654.6928,-118.2051 651.542,-108.0896 647.697,-117.9621 654.6928,-118.2051"/>
</g>
<!-- maxThreads&#45;&gt;hibernate.c3p0.max_size -->
<g id="edge29" class="edge">
<title>maxThreads&#45;&gt;hibernate.c3p0.max_size</title>
<path fill="none" stroke="#000000" d="M352.5448,-431.8314C373.8488,-422.2446 400.1684,-410.4008 422.6912,-400.2655"/>
<polygon fill="#000000" stroke="#000000" points="424.4027,-403.3334 432.0857,-396.038 421.5301,-396.95 424.4027,-403.3334"/>
</g>
<!-- RAM&#45;&gt;effective_cache_size -->
<g id="edge34" class="edge">
<title>RAM&#45;&gt;effective_cache_size</title>
<path fill="none" stroke="#000000" d="M679.3134,-75.0816C697.1205,-65.2944 720.7674,-52.2976 740.9988,-41.1781"/>
<polygon fill="#000000" stroke="#000000" points="742.9429,-44.1034 750.0207,-36.2195 739.5713,-37.9689 742.9429,-44.1034"/>
</g>
<!-- shared_buffers -->
<g id="node32" class="node">
<title>shared_buffers</title>
<polygon fill="none" stroke="#c0c0c0" points="700.6701,-36 603.6701,-36 603.6701,0 700.6701,0 700.6701,-36"/>
<text text-anchor="middle" x="652.1701" y="-14.3" font-family="Times,serif" font-size="14.00" fill="#000000">shared_buffers</text>
</g>
<!-- RAM&#45;&gt;shared_buffers -->
<g id="edge35" class="edge">
<title>RAM&#45;&gt;shared_buffers</title>
<path fill="none" stroke="#000000" d="M652.1701,-71.8314C652.1701,-64.131 652.1701,-54.9743 652.1701,-46.4166"/>
<polygon fill="#000000" stroke="#000000" points="655.6702,-46.4132 652.1701,-36.4133 648.6702,-46.4133 655.6702,-46.4132"/>
</g>
<!-- swappiness -->
<g id="node33" class="node">
<title>swappiness</title>
<polygon fill="none" stroke="#000000" points="585.1701,-36 507.1701,-36 507.1701,0 585.1701,0 585.1701,-36"/>
<text text-anchor="middle" x="546.1701" y="-14.3" font-family="Times,serif" font-size="14.00" fill="#000000">swappiness</text>
</g>
<!-- RAM&#45;&gt;swappiness -->
<g id="edge36" class="edge">
<title>RAM&#45;&gt;swappiness</title>
<path fill="none" stroke="#000000" d="M625.4218,-71.8314C612.1148,-62.7927 595.8541,-51.7476 581.5326,-42.0198"/>
<polygon fill="#000000" stroke="#000000" points="583.1486,-38.8864 572.9098,-36.1628 579.2154,-44.677 583.1486,-38.8864"/>
</g>
<!-- work_mem&#45;&gt;RAM -->
<g id="edge41" class="edge">
<title>work_mem&#45;&gt;RAM</title>
<path fill="none" stroke="#000000" d="M699.2725,-143.8314C691.9423,-135.454 683.1041,-125.3531 675.0732,-116.1749"/>
<polygon fill="#000000" stroke="#000000" points="677.5008,-113.6343 668.2817,-108.4133 672.2327,-118.2438 677.5008,-113.6343"/>
</g>
</g>
</svg>
