<?xml version="1.0" encoding="UTF-8" standalone="no"?><!DOCTYPE svg PUBLIC "-//W3C//DTD SVG 1.1//EN" "http://www.w3.org/Graphics/SVG/1.1/DTD/svg11.dtd"><!-- Generated by graphviz version 2.40.1 (20161225.0304)
 --><!-- Title: G Pages: 1 --><svg xmlns="http://www.w3.org/2000/svg" xmlns:xlink="http://www.w3.org/1999/xlink" width="1110pt" height="260pt" viewBox="0.00 0.00 1110.09 260.00">
<g id="graph0" class="graph" transform="scale(1 1) rotate(0) translate(4 256)">
<title>G</title>
<polygon fill="#ffffff" stroke="transparent" points="-4,4 -4,-256 1106.0851,-256 1106.0851,4 -4,4"/>
<!-- Hub -->
<g id="node1" class="node">
<title>Hub</title>
<ellipse fill="#9cfffe" stroke="#9cfffe" cx="562.7853" cy="-234" rx="27.8306" ry="18"/>
<text text-anchor="middle" x="562.7853" y="-229.8" font-family="Times,serif" font-size="14.00" fill="#000000">Hub</text>
</g>
<!-- Server1 -->
<g id="node2" class="node">
<title>Server1</title>
<ellipse fill="#ccd1ff" stroke="#ccd1ff" cx="328.7853" cy="-162" rx="41.1297" ry="18"/>
<text text-anchor="middle" x="328.7853" y="-157.8" font-family="Times,serif" font-size="14.00" fill="#000000">Server1</text>
</g>
<!-- Hub&#45;&gt;Server1 -->
<g id="edge1" class="edge">
<title>Hub-&gt;Server1</title>
<path fill="none" stroke="#000000" d="M537.7432,-226.2947C498.2549,-214.1445 421.0131,-190.3778 372.3085,-175.3918"/>
<polygon fill="#000000" stroke="#000000" points="373.2573,-172.0218 362.6702,-172.4261 371.1987,-178.7123 373.2573,-172.0218"/>
</g>
<!-- Server2 -->
<g id="node3" class="node">
<title>Server2</title>
<ellipse fill="#ccd1ff" stroke="#ccd1ff" cx="562.7853" cy="-162" rx="41.1297" ry="18"/>
<text text-anchor="middle" x="562.7853" y="-157.8" font-family="Times,serif" font-size="14.00" fill="#000000">Server2</text>
</g>
<!-- Hub&#45;&gt;Server2 -->
<g id="edge2" class="edge">
<title>Hub-&gt;Server2</title>
<path fill="none" stroke="#000000" d="M562.7853,-215.8314C562.7853,-208.131 562.7853,-198.9743 562.7853,-190.4166"/>
<polygon fill="#000000" stroke="#000000" points="566.2854,-190.4132 562.7853,-180.4133 559.2854,-190.4133 566.2854,-190.4132"/>
</g>
<!-- Server3 -->
<g id="node4" class="node">
<title>Server3</title>
<ellipse fill="#ccd1ff" stroke="#ccd1ff" cx="799.7853" cy="-162" rx="41.1297" ry="18"/>
<text text-anchor="middle" x="799.7853" y="-157.8" font-family="Times,serif" font-size="14.00" fill="#000000">Server3</text>
</g>
<!-- Hub&#45;&gt;Server3 -->
<g id="edge3" class="edge">
<title>Hub-&gt;Server3</title>
<path fill="none" stroke="#000000" d="M588.1484,-226.2947C628.2547,-214.1106 706.8124,-190.2449 756.1167,-175.2664"/>
<polygon fill="#000000" stroke="#000000" points="757.3175,-178.5596 765.8683,-172.3039 755.2827,-171.8619 757.3175,-178.5596"/>
</g>
<!-- Proxy1 -->
<g id="node5" class="node">
<title>Proxy1</title>
<ellipse fill="#bdd6ff" stroke="#bdd6ff" cx="252.7853" cy="-90" rx="38.8671" ry="18"/>
<text text-anchor="middle" x="252.7853" y="-85.8" font-family="Times,serif" font-size="14.00" fill="#000000">Proxy1</text>
</g>
<!-- Server1&#45;&gt;Proxy1 -->
<g id="edge4" class="edge">
<title>Server1-&gt;Proxy1</title>
<path fill="none" stroke="#000000" stroke-dasharray="1,5" d="M311.5397,-145.6621C301.4339,-136.0882 288.5032,-123.8381 277.3465,-113.2686"/>
<polygon fill="#000000" stroke="#000000" points="279.6293,-110.6099 269.9626,-106.2733 274.815,-115.6916 279.6293,-110.6099"/>
</g>
<!-- Proxy2 -->
<g id="node6" class="node">
<title>Proxy2</title>
<ellipse fill="#bdd6ff" stroke="#bdd6ff" cx="562.7853" cy="-90" rx="38.8671" ry="18"/>
<text text-anchor="middle" x="562.7853" y="-85.8" font-family="Times,serif" font-size="14.00" fill="#000000">Proxy2</text>
</g>
<!-- Server2&#45;&gt;Proxy2 -->
<g id="edge5" class="edge">
<title>Server2-&gt;Proxy2</title>
<path fill="none" stroke="#000000" stroke-dasharray="1,5" d="M562.7853,-143.8314C562.7853,-136.131 562.7853,-126.9743 562.7853,-118.4166"/>
<polygon fill="#000000" stroke="#000000" points="566.2854,-118.4132 562.7853,-108.4133 559.2854,-118.4133 566.2854,-118.4132"/>
</g>
<!-- Proxy3 -->
<g id="node7" class="node">
<title>Proxy3</title>
<ellipse fill="#bdd6ff" stroke="#bdd6ff" cx="868.7853" cy="-90" rx="38.8671" ry="18"/>
<text text-anchor="middle" x="868.7853" y="-85.8" font-family="Times,serif" font-size="14.00" fill="#000000">Proxy3</text>
</g>
<!-- Server3&#45;&gt;Proxy3 -->
<g id="edge6" class="edge">
<title>Server3-&gt;Proxy3</title>
<path fill="none" stroke="#000000" stroke-dasharray="1,5" d="M815.7887,-145.3008C824.6715,-136.0317 835.877,-124.339 845.6938,-114.0954"/>
<polygon fill="#000000" stroke="#000000" points="848.4765,-116.2502 852.8686,-106.6087 843.4226,-111.4069 848.4765,-116.2502"/>
</g>
<!-- Client_1001 -->
<g id="node8" class="node">
<title>Client_1001</title>
<ellipse fill="#d3d3d3" stroke="#000000" cx="58.7853" cy="-18" rx="58.5713" ry="18"/>
<text text-anchor="middle" x="58.7853" y="-13.8" font-family="Times,serif" font-size="14.00" fill="#000000">Client_1001</text>
</g>
<!-- Proxy1&#45;&gt;Client_1001 -->
<g id="edge7" class="edge">
<title>Proxy1-&gt;Client_1001</title>
<path fill="none" stroke="#000000" d="M222.0454,-78.5914C190.892,-67.0293 142.2716,-48.9846 106.1835,-35.5911"/>
<polygon fill="#000000" stroke="#000000" points="106.955,-32.1442 96.362,-31.946 104.5193,-38.7068 106.955,-32.1442"/>
</g>
<!-- Client_1002 -->
<g id="node9" class="node">
<title>Client_1002</title>
<ellipse fill="#d3d3d3" stroke="#000000" cx="194.7853" cy="-18" rx="58.5713" ry="18"/>
<text text-anchor="middle" x="194.7853" y="-13.8" font-family="Times,serif" font-size="14.00" fill="#000000">Client_1002</text>
</g>
<!-- Proxy1&#45;&gt;Client_1002 -->
<g id="edge8" class="edge">
<title>Proxy1-&gt;Client_1002</title>
<path fill="none" stroke="#000000" d="M239.0401,-72.937C231.9739,-64.1652 223.2186,-53.2965 215.3653,-43.5476"/>
<polygon fill="#000000" stroke="#000000" points="218.0365,-41.2843 209.0375,-35.6924 212.5852,-45.6756 218.0365,-41.2843"/>
</g>
<!-- Client.. -->
<g id="node10" class="node">
<title>Client..</title>
<ellipse fill="#d3d3d3" stroke="#000000" cx="310.7853" cy="-18" rx="39.4428" ry="18"/>
<text text-anchor="middle" x="310.7853" y="-13.8" font-family="Times,serif" font-size="14.00" fill="#000000">Client..</text>
</g>
<!-- Proxy1&#45;&gt;Client.. -->
<g id="edge9" class="edge">
<title>Proxy1-&gt;Client..</title>
<path fill="none" stroke="#000000" d="M266.5305,-72.937C273.7536,-63.9703 282.7419,-52.8124 290.7275,-42.8993"/>
<polygon fill="#000000" stroke="#000000" points="293.5911,-44.9237 297.1387,-34.9405 288.1398,-40.5324 293.5911,-44.9237"/>
</g>
<!-- Client_2001 -->
<g id="node11" class="node">
<title>Client_2001</title>
<ellipse fill="#d3d3d3" stroke="#000000" cx="426.7853" cy="-18" rx="58.5713" ry="18"/>
<text text-anchor="middle" x="426.7853" y="-13.8" font-family="Times,serif" font-size="14.00" fill="#000000">Client_2001</text>
</g>
<!-- Proxy2&#45;&gt;Client_2001 -->
<g id="edge10" class="edge">
<title>Proxy2-&gt;Client_2001</title>
<path fill="none" stroke="#000000" d="M536.8846,-76.2879C516.6992,-65.6015 488.3543,-50.5954 465.48,-38.4855"/>
<polygon fill="#000000" stroke="#000000" points="466.848,-35.2495 456.3725,-33.6638 463.5728,-41.436 466.848,-35.2495"/>
</g>
<!-- Client_2002 -->
<g id="node12" class="node">
<title>Client_2002</title>
<ellipse fill="#d3d3d3" stroke="#000000" cx="562.7853" cy="-18" rx="58.5713" ry="18"/>
<text text-anchor="middle" x="562.7853" y="-13.8" font-family="Times,serif" font-size="14.00" fill="#000000">Client_2002</text>
</g>
<!-- Proxy2&#45;&gt;Client_2002 -->
<g id="edge11" class="edge">
<title>Proxy2-&gt;Client_2002</title>
<path fill="none" stroke="#000000" d="M562.7853,-71.8314C562.7853,-64.131 562.7853,-54.9743 562.7853,-46.4166"/>
<polygon fill="#000000" stroke="#000000" points="566.2854,-46.4132 562.7853,-36.4133 559.2854,-46.4133 566.2854,-46.4132"/>
</g>
<!-- Client... -->
<g id="node13" class="node">
<title>Client...</title>
<ellipse fill="#d3d3d3" stroke="#000000" cx="681.7853" cy="-18" rx="41.7715" ry="18"/>
<text text-anchor="middle" x="681.7853" y="-13.8" font-family="Times,serif" font-size="14.00" fill="#000000">Client...</text>
</g>
<!-- Proxy2&#45;&gt;Client... -->
<g id="edge12" class="edge">
<title>Proxy2-&gt;Client...</title>
<path fill="none" stroke="#000000" d="M586.5807,-75.6028C604.3438,-64.8553 628.8442,-50.0316 648.542,-38.1136"/>
<polygon fill="#000000" stroke="#000000" points="650.469,-41.0385 657.213,-32.8673 646.8453,-35.0494 650.469,-41.0385"/>
</g>
<!-- Client_3001 -->
<g id="node14" class="node">
<title>Client_3001</title>
<ellipse fill="#d3d3d3" stroke="#000000" cx="800.7853" cy="-18" rx="58.5713" ry="18"/>
<text text-anchor="middle" x="800.7853" y="-13.8" font-family="Times,serif" font-size="14.00" fill="#000000">Client_3001</text>
</g>
<!-- Proxy3&#45;&gt;Client_3001 -->
<g id="edge13" class="edge">
<title>Proxy3-&gt;Client_3001</title>
<path fill="none" stroke="#000000" d="M853.0138,-73.3008C844.5098,-64.2965 833.8457,-53.0052 824.3746,-42.9769"/>
<polygon fill="#000000" stroke="#000000" points="826.8308,-40.4801 817.4199,-35.6132 821.7417,-45.2865 826.8308,-40.4801"/>
</g>
<!-- Client_3002 -->
<g id="node15" class="node">
<title>Client_3002</title>
<ellipse fill="#d3d3d3" stroke="#000000" cx="936.7853" cy="-18" rx="58.5713" ry="18"/>
<text text-anchor="middle" x="936.7853" y="-13.8" font-family="Times,serif" font-size="14.00" fill="#000000">Client_3002</text>
</g>
<!-- Proxy3&#45;&gt;Client_3002 -->
<g id="edge14" class="edge">
<title>Proxy3-&gt;Client_3002</title>
<path fill="none" stroke="#000000" d="M884.5568,-73.3008C893.0608,-64.2965 903.7248,-53.0052 913.196,-42.9769"/>
<polygon fill="#000000" stroke="#000000" points="915.8289,-45.2865 920.1506,-35.6132 910.7398,-40.4801 915.8289,-45.2865"/>
</g>
<!-- Client.... -->
<g id="node16" class="node">
<title>Client....</title>
<ellipse fill="#d3d3d3" stroke="#000000" cx="1057.7853" cy="-18" rx="44.1006" ry="18"/>
<text text-anchor="middle" x="1057.7853" y="-13.8" font-family="Times,serif" font-size="14.00" fill="#000000">Client....</text>
</g>
<!-- Proxy3&#45;&gt;Client.... -->
<g id="edge15" class="edge">
<title>Proxy3-&gt;Client....</title>
<path fill="none" stroke="#000000" d="M899.1514,-78.432C930.7222,-66.405 980.3751,-47.4896 1015.7152,-34.0267"/>
<polygon fill="#000000" stroke="#000000" points="1017.1777,-37.215 1025.2765,-30.3843 1014.6856,-30.6736 1017.1777,-37.215"/>
</g>
</g>
</svg>