<svg xmlns="http://www.w3.org/2000/svg" width="270" height="90" viewBox="0 0 270 90"><path d="M224.908 59.781a5.964 5.964 0 01-5.958-5.957V36.165a5.966 5.966 0 015.958-5.959h13.555c1.062 0 1.926.864 1.926 1.925a1.927 1.927 0 01-1.926 1.924h-13.555a2.111 2.111 0 00-2.107 2.11v6.95h13.294c1.006 0 1.824.819 1.824 1.825a1.826 1.826 0 01-1.824 1.824h-13.294v7.06c0 1.163.945 2.107 2.107 2.107h13.555c1.062 0 1.926.865 1.926 1.926a1.926 1.926 0 01-1.926 1.924zm-60.782.389c-3.909 0-6.92-.992-8.95-2.95-2.028-1.954-3.056-4.894-3.056-8.739V32.053c0-1.231 1-2.232 2.23-2.232a2.234 2.234 0 012.232 2.232v15.839c0 2.877.62 5.034 1.843 6.408 1.229 1.384 3.146 2.085 5.701 2.085 2.553 0 4.472-.701 5.701-2.085 1.222-1.375 1.841-3.531 1.841-6.408V32.053a2.235 2.235 0 012.233-2.232 2.234 2.234 0 012.232 2.232v16.428c0 3.843-1.03 6.783-3.059 8.739-2.03 1.958-5.039 2.95-8.948 2.95m33.526 0c-5.033 0-8.868-1.43-11.394-4.25-.731-.816-.685-2.075.106-2.865l.008-.009.008-.008a2.113 2.113 0 011.499-.616c.599 0 1.163.255 1.55.703a8.839 8.839 0 002.396 1.966c1.547.859 3.493 1.294 5.783 1.294 2.173 0 3.907-.383 5.154-1.14 1.284-.776 1.936-1.895 1.936-3.327 0-1.158-.59-2.103-1.754-2.805-1.132-.681-3.042-1.266-5.84-1.791-2.718-.507-4.909-1.141-6.513-1.885-1.586-.734-2.751-1.651-3.464-2.731-.713-1.072-1.074-2.403-1.074-3.956 0-1.639.46-3.153 1.367-4.498.909-1.348 2.242-2.435 3.963-3.229 1.73-.798 3.778-1.202 6.088-1.202 2.7 0 5.035.494 6.941 1.47a11.928 11.928 0 013.448 2.68c.77.861.698 2.194-.163 2.971a2.105 2.105 0 01-3.08-.28c-.572-.744-1.216-1.35-1.917-1.8-1.296-.833-3.039-1.255-5.183-1.255-2.116 0-3.787.432-4.966 1.284-1.199.867-1.808 1.999-1.808 3.362 0 1.279.596 2.306 1.773 3.052 1.143.727 3.122 1.337 6.049 1.863 2.656.477 4.792 1.089 6.35 1.816 1.54.717 2.677 1.621 3.377 2.686.697 1.061 1.05 2.399 1.05 3.977 0 1.696-.488 3.207-1.45 4.491-.97 1.291-2.348 2.295-4.093 2.984-1.762.695-3.829 1.048-6.147 1.048m-66.83.008c-5.035 0-8.868-1.431-11.395-4.251-.731-.815-.684-2.074.106-2.865l.012-.012c.402-.4.936-.62 1.504-.62.6 0 1.165.256 1.549.703a8.826 8.826 0 002.395 1.966c1.548.86 3.494 1.295 5.784 1.295 2.172 0 3.906-.383 5.155-1.14 1.284-.776 1.935-1.895 1.935-3.326 0-1.16-.591-2.103-1.754-2.805-1.133-.683-3.044-1.269-5.841-1.794-2.717-.506-4.908-1.141-6.513-1.883-1.585-.735-2.752-1.654-3.464-2.731-.712-1.073-1.073-2.404-1.073-3.956 0-1.64.46-3.152 1.366-4.497.909-1.35 2.243-2.436 3.964-3.23 1.728-.797 3.776-1.202 6.088-1.202 2.7 0 5.036.495 6.94 1.47a11.892 11.892 0 013.447 2.68 2.106 2.106 0 01-1.571 3.511 2.095 2.095 0 01-1.67-.82 7.656 7.656 0 00-1.917-1.801c-1.297-.834-3.04-1.256-5.183-1.256-2.117 0-3.787.433-4.968 1.285-1.198.87-1.806 2.001-1.806 3.362 0 1.279.596 2.306 1.772 3.053 1.144.727 3.122 1.336 6.051 1.863 2.653.475 4.79 1.086 6.351 1.815 1.54.72 2.674 1.624 3.374 2.685.698 1.06 1.052 2.398 1.052 3.979 0 1.697-.488 3.207-1.452 4.489-.97 1.292-2.347 2.297-4.094 2.986-1.761.695-3.828 1.047-6.144 1.047" fill="#FFF"/><path d="M101.541 40.263a1.208 1.208 0 00-1.738 0 1.233 1.233 0 00.192 1.897c.406.269.948.269 1.353 0a1.235 1.235 0 00.193-1.897m-1.589-4.179c-3.284-.769-6.234 2.182-5.463 5.464a4.573 4.573 0 003.392 3.39c3.284.772 6.236-2.181 5.463-5.465a4.576 4.576 0 00-3.392-3.389M78.271 54.571c-2.14-.791-2.967-.632-5.703-.594-1.896.024-1.965-.041-4.129-.041-.669 0-.915 3.205 1.504 3.871 1.059.291 2.203.475 3 1.289.353.36.551.904-.264.904h-6.006c-1.051 0-2.043.024-2.846-.656-1.213-1.025-1.779-2.435-2.386-3.834-.63-1.455-1.309-2.888-2.107-4.259-1.586-2.726-3.683-5.192-6.496-6.699-3.512-1.884-9.473-2.818-14.193.807-4.974 3.819-3.909 10.973.442 14.473 1.718 1.383 3.958 1.961 6.16 1.831 4.303-.249 7.476-3.42 6.688-7.323-.263-1.306-1.025-2.543-2.173-3.217-.816-.477-1.784-.646-2.729-.648-1.016-.003-2.097.206-2.828.913-.864.837-1.004 2.316-.313 3.301.382.546 1.004 1.007.899 1.718-.072.481-.469.839-.943.945-.807.18-1.546-.28-2.091-.842-1.398-1.44-1.836-3.732-1.066-5.587 1.006-2.429 3.804-3.765 6.431-3.678 3.387.114 6.58 2.348 7.968 5.439 1.389 3.093.973 6.888-.941 9.686-4.253 6.216-14.756 5.482-19.636.24-3.061-3.289-4.724-6.48-4.491-12.423.164-4.199 2.587-8.336 5.676-11.246 5.033-4.743 11.661-7.986 18.406-9.384a41.45 41.45 0 0112.483-.63c3.667.364 7.312 1.036 10.836 2.127a42.83 42.83 0 015.135 1.957c1.468.674 3.392 1.409 4.535 2.573 0-2.108-.082-4.424-.082-6.037 0-.615.647-1.031 1.201-.768 2.385 1.107 8.035 3.776 11.802 5.499 5.05 2.307 5.407 7.75 5.583 12.576.004.108.009.219-.039.315-.159.331-1.01.241-1.322.245-.604.006-1.515.002-2.119.03-1.205.052-2.379.03-3.585-.03-2.229-.108-4.384-1.102-5.827-2.309-.144-.122-.61-.254-.829-.026-.228.235-.15.603-.027.729.828.835 1.725 1.375 2.769 1.914 1.326.681 2.772.854 4.238.939 1.57.093 3.151.069 4.718-.091 1.308-.134 1.646-.224.355.735-1.134.843-2.449 1.449-3.783 1.897-1.914.652-3.934.973-5.951 1.029a23.43 23.43 0 01-3.659-.188c-.628-.078-1.251-.192-1.881-.256-.511-.052-1.041-.147-1.55-.037-.463.101-.89.351-1.181.728-.399.521-.537 1.951-.306 2.571.445 1.201 1.424 1.899 2.458 2.515 1.12.666 2.593.894 2.88 2.167.059.266-2.322.273-2.592.269h-3.169s-1.722.041-2.393-.203c-.021-.006-.039-.016-.061-.027-.364-.196-.522-.684-.646-1.054-.177-.521-.487-1.042-.864-1.581-.716-1.022-1.816-2.14-2.96-2.564m23.997-14.062a3.36 3.36 0 11-6.72.004 3.36 3.36 0 016.72-.004" fill="#30BA78"/></svg>